<svg xmlns="http://www.w3.org/2000/svg" viewBox="0 0 100.95 100.97"><defs><style>.cls-1{fill:#ed3b72;}.cls-2{fill:#203b63;}.cls-3{fill:#b7c5d8;}</style></defs><g id="Ebene_2" data-name="Ebene 2"><g id="Ebene_4" data-name="Ebene 4"><path class="cls-1" d="M89.72,47.45c1.19-2.45,4.58-9.79,5-10.78,1.76-4.14-3.07-.21-.45-3.86.45-.62-2.74.79-2.14.61.68-2.8-1.08-4.77-3.32-6.89-5.62-5.32-11-10.87-16.45-16.4C70.91,8.65,69.63,8.19,67.54,9A87,87,0,0,0,37.16,28.56c-6.4,6.3-12.67,12.74-19.1,19C16.4,49.2,16.2,50.31,18,52Q33.51,67.4,48.86,83c1.68,1.69,2.81,1.74,4.46,0,8.63-9.12,17.44-18.07,26-27.27C81.12,53.7,88.23,49.74,89.72,47.45Zm-42.18,6a17.18,17.18,0,0,1,.05-24.06A17,17,0,0,1,71.42,53.51,17.2,17.2,0,0,1,47.54,53.45Z"/><path d="M30.78,70.15,2.17,41.54c-2.91-2.92-2.93-3.61.17-6.39,7-6.32,14.72-11.45,24.22-13.1a30.42,30.42,0,0,1,8.68-.2,6.43,6.43,0,0,0,5.47-1.56A80.1,80.1,0,0,1,63.18,6.62a86.41,86.41,0,0,1,35-6.6c1.87,0,2.69.94,2.72,2.78a87.18,87.18,0,0,1-6.22,33.87c-1.2,2.65-1.65,1.62-2.57,1.69-1-.65-1.38-1.19-.87-2.91,1.3-4.38.28-6.32-2.47-8.92-5.62-5.32-11-10.87-16.45-16.4C70.91,8.65,69.63,8.19,67.54,9A86.9,86.9,0,0,0,37.16,28.56c-6.4,6.3-12.67,12.74-19.1,19C16.4,49.2,16.2,50.31,18,52Q33.51,67.4,48.86,83c1.68,1.69,2.81,1.74,4.46,0,8.63-9.12,17.44-18.07,26-27.27,2.34-2.53,3.9-5.77,6-8.57.94-1.28,1.84-3.75,3.9-2.31s.25,3.13-.72,4.5c-2.67,3.8-5.49,7.5-8.07,11.36a6.66,6.66,0,0,0-1.27,4.06A34,34,0,0,1,74,87.37,112.32,112.32,0,0,1,65.41,99c-2.15,2.69-3.17,2.64-5.66.16Q45.25,84.65,30.78,70.15ZM74.71,6.74l19,19c.41-.63.85-1,.91-1.42Q95.86,14.92,97,5.56c.2-1.6-.87-1.73-2.07-1.65-3,.21-6,.22-8.94.64C82.46,5.05,79,5.9,74.71,6.74ZM34,25.82a11.61,11.61,0,0,0-2.14-.42c-10.32.42-18.7,5.14-26.07,12a2.55,2.55,0,0,0,.09,2.45c1.55,1.84,3.42,3.4,5,5.2s2.68,1.63,4.27,0c5.62-5.77,11.36-11.42,17-17.12C32.77,27.38,33.21,26.79,34,25.82ZM75.4,67.31c-.65.12-.76.1-.81.15-6.49,6.4-13,12.78-19.41,19.28-.41.42-.18,2.07.33,2.66,1.66,2,3.61,3.67,5.39,5.53C62,96.09,63,96.08,64,94.83c1.58-2,3.23-4,4.7-6.1a36.93,36.93,0,0,0,6.82-18.44A24.07,24.07,0,0,0,75.4,67.31Z"/><path d="M71.55,29.55a16.91,16.91,0,0,1-.13,24A17,17,0,0,1,47.59,29.39,16.91,16.91,0,0,1,71.55,29.55ZM68.67,50.69A13,13,0,0,0,50.39,32.14a13.41,13.41,0,0,0-.19,18.48A13.39,13.39,0,0,0,68.67,50.69Z"/><path class="cls-2" d="M74.71,6.74C79,5.9,82.46,5.05,86,4.55c3-.42,6-.43,8.94-.64,1.2-.08,2.27,0,2.07,1.65q-1.2,9.36-2.46,18.72c-.06.42-.5.79-.91,1.42Z"/><path class="cls-2" d="M34,25.82c-.83,1-1.27,1.56-1.78,2.07-5.69,5.7-11.43,11.35-17,17.12-1.59,1.63-2.75,1.72-4.27,0s-3.47-3.36-5-5.2a2.55,2.55,0,0,1-.09-2.45c7.37-6.82,15.75-11.54,26.07-12A11.61,11.61,0,0,1,34,25.82Z"/><path class="cls-2" d="M75.4,67.31a24.07,24.07,0,0,1,.12,3A36.93,36.93,0,0,1,68.7,88.73c-1.47,2.1-3.12,4.08-4.7,6.1-1,1.25-2,1.26-3.1.1-1.78-1.86-3.73-3.57-5.39-5.53-.51-.59-.74-2.24-.33-2.66,6.4-6.5,12.92-12.88,19.41-19.28C74.64,67.41,74.75,67.43,75.4,67.31Z"/><path class="cls-3" d="M68.67,50.69a13.39,13.39,0,0,1-18.47-.07,13.41,13.41,0,0,1,.19-18.48A13,13,0,0,1,68.67,50.69Zm-16.45-2A10.3,10.3,0,0,0,67,48.65,10.38,10.38,0,0,0,52.3,34,10.29,10.29,0,0,0,52.22,48.73Z"/><path d="M52.22,48.73A10.29,10.29,0,0,1,52.3,34,10.38,10.38,0,0,1,67,48.65,10.3,10.3,0,0,1,52.22,48.73ZM54.93,46a6.52,6.52,0,0,0,9.35,0A6.56,6.56,0,0,0,55,36.67,6.51,6.51,0,0,0,54.93,46Z"/><path class="cls-3" d="M54.93,46A6.51,6.51,0,0,1,55,36.67,6.56,6.56,0,0,1,64.28,46,6.52,6.52,0,0,1,54.93,46Z"/><path d="M20.14,83.59l0,0c2.23-2.23,4.46-4.45,6.68-6.69,1-1,1.91-2.16.63-3.42s-2.44-.3-3.42.68c-2.24,2.23-4.49,4.44-6.72,6.68h0l0,0c-2.23,2.23-4.46,4.45-6.68,6.69-1,1-1.91,2.16-.63,3.42s2.44.3,3.42-.68c2.24-2.23,4.49-4.45,6.72-6.68Z"/><path d="M29.44,92.89l0,0q3.35-3.33,6.68-6.68c1-1,1.91-2.17.63-3.42s-2.44-.3-3.42.67c-2.24,2.23-4.49,4.45-6.72,6.68h0l0,0c-2.23,2.23-4.47,4.45-6.68,6.68-1,1-1.91,2.17-.63,3.43s2.44.3,3.42-.68c2.24-2.23,4.49-4.45,6.72-6.68Z"/><path d="M13.66,71.45l0,0c2.23-2.23,1.64-1.62,3.85-3.86,1-1,1.91-2.16.63-3.42s-2.44-.3-3.42.68c-2.23,2.23-1.66,1.62-3.89,3.85h0l0,0c-2.23,2.23,2.22-2.24,0,0-1,1-1.9,2.17-.63,3.42s2.44.3,3.42-.67c2.24-2.23-2.19,2.23,0,0Z"/><path d="M4.15,81l0,0C6.42,78.69,5.83,79.3,8,77.06c1-1,1.91-2.16.64-3.42s-2.44-.3-3.43.68C3,76.55,3.6,75.94,1.36,78.17h0l0,0c-2.22,2.22,2.22-2.24,0,0-1,1-1.91,2.17-.64,3.42s2.44.3,3.43-.67c2.23-2.23-2.2,2.23,0,0Z"/></g></g></svg>