<svg xmlns="http://www.w3.org/2000/svg" viewBox="0 0 95.8 95.75"><defs><style>.cls-1{fill:#0b0a0a;}.cls-2{fill:#dae0e5;}.cls-3{fill:#243a5e;}.cls-4{fill:#4a9da1;}.cls-5{fill:#5abac7;}.cls-6{fill:#f0e376;}</style></defs><g id="Ebene_2" data-name="Ebene 2"><g id="Ebene_4" data-name="Ebene 4"><path class="cls-1" d="M8.38,15a81.6,81.6,0,0,1,9.67-8.82A68.78,68.78,0,0,1,30.74.83L33,.52a48.42,48.42,0,0,1,15,.15L49.31,1A55.53,55.53,0,0,1,62.19,6.73L71.07,15l0,2C68.75,18,68,16,66.85,14.79A37.12,37.12,0,0,0,19.43,9,37.22,37.22,0,0,0,5.73,53.88c8,18.82,30.4,27.89,48.6,19.64C73.67,64.75,81.86,43.05,73,24.1c-.67-1.44-1.69-2.83-1.09-4.58,1.69-.58,2.38.45,3,1.77.85,1.85,1.79,3.65,2.69,5.47a4.09,4.09,0,0,0,.92,3.18,71.55,71.55,0,0,1,.85,15c-1.08,3.79-1.8,7.69-3.51,11.29-2.37,5-2.33,5,2.06,8.81l9.79,9.81A29.76,29.76,0,0,0,92.88,80c2.22,2.89,3.64,6,2.53,9.73A13.69,13.69,0,0,1,92,94.28c-5.84,3.38-10.08.36-14.11-3.52L77,89.82q-6.67-7.35-14-14c-1-1.94-2.26-2.6-4.38-1.19-3.21,2.12-7,3-10.62,4.1A51.54,51.54,0,0,1,33.05,79a41.42,41.42,0,0,1-22.7-12.57C4.7,60.3,1.78,52.94.12,44.94a56,56,0,0,1,1-14.9l2.67-7.57Q6.07,18.75,8.38,15Zm84.48,71.9c0-2.47-1.51-4.13-3.08-5.72-5.07-5.13-10.3-10.11-15.24-15.36-2.27-2.41-3.63-2.32-5.27.47a9.08,9.08,0,0,1-3.13,3.15c-3,1.69-2.24,3.06-.2,5,5,4.81,9.91,9.8,14.81,14.75a12.75,12.75,0,0,0,4.22,3A5.9,5.9,0,0,0,92.86,86.93Z"/><path class="cls-2" d="M71.92,19.52c-.6,1.75.42,3.14,1.09,4.58,8.85,18.95.66,40.65-18.68,49.42-18.2,8.25-40.65-.82-48.6-19.64A37.22,37.22,0,0,1,19.43,9a37.12,37.12,0,0,1,47.42,5.78C68,16,68.75,18,71,17,71.33,17.86,71.62,18.69,71.92,19.52ZM10.45,44.23l.21,2.31c-.93,1-.66,1.91-.32,3.07C14.63,64.08,31.86,73.8,46.59,70,69.88,64,78.42,37.53,63,19.27,54.8,9.59,40.41,6.15,28.21,11a30.82,30.82,0,0,0-19.41,30C8.88,42.24,8.58,43.79,10.45,44.23Z"/><path class="cls-3" d="M92.86,86.93A5.9,5.9,0,0,1,85,92.22a12.75,12.75,0,0,1-4.22-3c-4.9-5-9.77-9.94-14.81-14.75-2-2-2.75-3.32.2-5a9.08,9.08,0,0,0,3.13-3.15c1.64-2.79,3-2.88,5.27-.47,4.94,5.25,10.17,10.23,15.24,15.36C91.35,82.8,92.89,84.46,92.86,86.93Z"/><path class="cls-1" d="M10.45,44.23c-1.87-.44-1.57-2-1.65-3.31A30.82,30.82,0,0,1,28.21,11C40.41,6.15,54.8,9.59,63,19.27,78.42,37.53,69.88,64,46.59,70c-14.73,3.82-32-5.9-36.25-20.37-.34-1.16-.61-2.12.32-3.07,2.25,0,2.24,2,2.83,3.34,4,9.38,10.85,15.36,21,17.32a34.72,34.72,0,0,0,8.89.36c15.93-1.83,27-17.16,24-33.47C64.53,18.85,48.77,8.8,33.64,12.59,21.82,14.63,12.15,26,11.81,38,11.75,40.12,12.75,42.57,10.45,44.23Z"/><path class="cls-4" d="M10.45,44.23c2.3-1.66,1.3-4.11,1.36-6.22.34-12.06,10-23.38,21.83-25.41.15,1.5-1.13,1.74-2,2.33A29.52,29.52,0,0,0,19.47,48.45c.8,2.53,1.89,4.52,5.12,4.89-1.49.83-2.9,1.54-1.48,2.93,1.95,1.9,3.17,4.37,5.47,6.06,2,1.49,4.66,2.39,5.91,4.87-10.15-2-17-7.94-21-17.32-.59-1.39-.58-3.33-2.83-3.34Z"/><path class="cls-5" d="M34.49,67.2c-1.25-2.48-3.88-3.38-5.91-4.87-2.3-1.69-3.52-4.16-5.47-6.06-1.42-1.39,0-2.1,1.48-2.93C21.36,53,20.27,51,19.47,48.45A29.52,29.52,0,0,1,31.61,14.93c.9-.59,2.18-.83,2-2.33,15.13-3.8,30.89,6.25,33.71,21.49,3,16.31-8,31.64-24,33.47A34.72,34.72,0,0,1,34.49,67.2ZM31.83,49c4.48.57,5-4.18,7.46-6.44,1.86-1.72-1.64-1.56-2.19-2.67a3,3,0,0,1-.32-1.8c.53-2.19,2.39-4.2.12-6.62-.65-.69.7-1.46,1.75-1.8,1.44-.46,1.73-2,.42-2.4-1.68-.58-1.74-1.92-2.42-3a6,6,0,0,0-8.49-1.77c-.91.6-1.46,1.56-2.76,1.75-1.7.24-1.85,1.17-.73,2.61,1.3,1.7,1.41,3.35-1.14,4.24-1.59.56-2,1.5-.34,2.56,2.52,1.6,2.68,3.06-.23,4.32-.76.33-1.35.65-1.25,1.56s.84,1.18,1.61,1.19c3.17.05,2.4,1.76,1.37,3.38-.52.81-1.08,2.06-.18,2.12C27.25,46.46,28.78,49.35,31.83,49Zm15.8-8.13c1.69-.1,6.48,2.41,7.48,4,.47.75.78,1.7,1.88,1.33s.71-1.35.84-2.19c.47-2.95,1.41-5.72,4.09-7.47.76-.5,1.6-.9,1.27-2s-1.3-.82-2.18-.87a10.12,10.12,0,0,1-7.48-4c-.56-.7-.91-1.57-2-1.21s-.59,1.42-.77,2.2c-.65,2.88-1.38,5.79-4.2,7.45-.8.48-1.57.92-1.14,2S46.7,41.25,47.63,40.89Zm1,16.07a7,7,0,0,0-6.75-6.67,6.82,6.82,0,0,0-6.7,7.05,6.63,6.63,0,0,0,6.88,6.38A6.76,6.76,0,0,0,48.63,57Z"/><path class="cls-1" d="M31.83,49c-3,.33-4.58-2.56-7.32-2.76-.9-.06-.34-1.31.18-2.12,1-1.62,1.8-3.33-1.37-3.38-.77,0-1.51-.23-1.61-1.19S22.2,38.34,23,38c2.91-1.26,2.75-2.72.23-4.32-1.68-1.06-1.25-2,.34-2.56,2.55-.89,2.44-2.54,1.14-4.24-1.12-1.44-1-2.37.73-2.61,1.3-.19,1.85-1.15,2.76-1.75a6,6,0,0,1,8.49,1.77c.68,1.07.74,2.41,2.42,3,1.31.45,1,1.94-.42,2.4-1,.34-2.4,1.11-1.75,1.8,2.27,2.42.41,4.43-.12,6.62a3,3,0,0,0,.32,1.8c.55,1.11,4,1,2.19,2.67C36.86,44.84,36.31,49.59,31.83,49Zm-4.06-14a30.18,30.18,0,0,0,.81,8.15c.35,1.9,1.39,3.33,3.55,2.94a2.8,2.8,0,0,0,2.31-3.64,36.56,36.56,0,0,1,0-14.44c.37-1.81-.31-3.3-2.26-3.65-2.14-.38-3.25.94-3.59,2.88A29.81,29.81,0,0,0,27.77,35.05Z"/><path class="cls-1" d="M47.63,40.89c-.93.36-1.77.25-2.17-.75s.34-1.49,1.14-2c2.82-1.66,3.55-4.57,4.2-7.45.18-.78-.34-1.82.77-2.2s1.4.51,2,1.21a10.12,10.12,0,0,0,7.48,4c.88,0,1.84-.2,2.18.87s-.51,1.46-1.27,2c-2.68,1.75-3.62,4.52-4.09,7.47-.13.84.22,1.84-.84,2.19s-1.41-.58-1.88-1.33C54.11,43.3,49.32,40.79,47.63,40.89Zm9.46-3.47a2.73,2.73,0,0,0-2.7-2.89,2.53,2.53,0,0,0-2.84,2.7,2.59,2.59,0,0,0,2.64,2.94A2.66,2.66,0,0,0,57.09,37.42Z"/><path class="cls-1" d="M48.63,57a6.76,6.76,0,0,1-6.57,6.76,6.63,6.63,0,0,1-6.88-6.38,6.82,6.82,0,0,1,6.7-7.05A7,7,0,0,1,48.63,57Zm-6.56,3.87c2.25-.23,3.64-1.48,3.58-3.81a3.53,3.53,0,0,0-4.08-3.75,3.48,3.48,0,0,0-3.44,4C38.23,59.66,39.7,60.74,42.07,60.83Z"/><path class="cls-6" d="M27.77,35.06a29.84,29.84,0,0,1,.81-7.77c.34-1.94,1.45-3.26,3.59-2.88,1.95.35,2.63,1.84,2.26,3.65a36.56,36.56,0,0,0,0,14.44,2.8,2.8,0,0,1-2.31,3.64c-2.16.39-3.2-1-3.55-2.94A30.15,30.15,0,0,1,27.77,35.06Z"/><path class="cls-6" d="M57.09,37.42a2.66,2.66,0,0,1-2.9,2.75,2.59,2.59,0,0,1-2.64-2.94,2.53,2.53,0,0,1,2.84-2.7A2.73,2.73,0,0,1,57.09,37.42Z"/><path class="cls-6" d="M42.07,60.83c-2.37-.09-3.84-1.17-3.94-3.56a3.48,3.48,0,0,1,3.44-4A3.53,3.53,0,0,1,45.65,57C45.71,59.35,44.32,60.6,42.07,60.83Z"/></g></g></svg>