<svg xmlns="http://www.w3.org/2000/svg" viewBox="0 0 70.6 96.08"><defs><style>.cls-1{fill:#f0e376;}.cls-2{fill:#dae0e5;}.cls-3{fill:#d2c35f;}.cls-4{fill:#d64a71;}.cls-5{fill:#243a5e;}.cls-6{fill:#0b0a0a;}</style></defs><g id="Ebene_2" data-name="Ebene 2"><g id="Ebene_4" data-name="Ebene 4"><path class="cls-1" d="M11.35,3.21C14.05,2.56,15,3.4,15,6.36c-.21,7.84-.09,15.68-.06,23.52,0,1.06-.37,2.41.89,3s2-.69,2.85-1.29c2.12-1.43,3.67-4.67,6.06-4.37,2.08.26,3.87,2.87,5.79,4.44.85.68,1.65,1.91,2.86,1.22,1-.6.91-1.94.91-3.07,0-8,.09-15.92,0-23.89,0-2.31.64-3,2.93-2.9,6.09.16,12.2.12,18.3,0,1.87,0,2.81.41,3.41,2.39a9.11,9.11,0,0,0,6.38,6.3c2,.57,2.2,1.65,2.36,3.43C67.8,17.43,68.71,20,69,21.94c0,1.22,0,2.43,0,3.65-1.79.78-1.49,2.38-1.49,3.85,0,9.48-.07,19,0,28.44,0,2.06-.45,3.07-2.55,3.7A9.41,9.41,0,0,0,58.73,68c-.49,1.54-1.09,2.28-2.8,2.27-14.84-.11-29.68-.14-44.53-.2Q11.39,36.65,11.35,3.21Z"/><path class="cls-2" d="M67.74,78.72c-1.45,1.25-2.87.73-4.15.74-14,0-27.95,0-41.92,0-.88,0-1.75,0-2.62,0s-1.79.32-1.73,1.48.94,1.36,1.86,1.4,1.75,0,2.62,0q21,0,41.93,0c1.25,0,2.64-.37,3.8.47C67.18,84.44,66.12,84,65.38,84c-5,0-10,0-15,0-1.1,0-2.51-.12-2.45,1.5s1.46,1.41,2.55,1.41c4.49,0,9,0,13.48,0,1.15,0,2.45-.5,3.65.67-1,1.46-2.46.84-3.64.85q-24.89.06-49.79,0c-1,0-2-.05-3,0s-1.75.52-1.64,1.6a1.49,1.49,0,0,0,1.59,1.27c1,0,2,0,3,0q24.7,0,49.41,0c1.28,0,2.7-.5,3.9.5-.24,1.64-1.51,1-2.33,1Q38,93.06,10.86,93c-5.34,0-7.67-2.45-7.78-7.82C2.86,74.45,4.23,73,14.88,73H63.55l2.62,0c.68,0,1.25.21,1.3,1s-.62.91-1.25.92c-.87,0-1.75,0-2.62,0H13.81c-.87,0-1.75,0-2.62,0s-1.55.36-1.63,1.21c-.09,1.06.7,1.55,1.65,1.63,1.12.08,2.25,0,3.37,0q24.53,0,49,0C64.89,77.92,66.32,77.37,67.74,78.72ZM25.57,86.93c5.36,0,10.71,0,16.06,0,1.18,0,2.82.33,2.82-1.51,0-1.54-1.46-1.4-2.56-1.4Q25.64,84,9.4,84c-1.09,0-2.55-.21-2.62,1.33-.09,1.89,1.56,1.57,2.74,1.58C14.87,87,20.22,86.93,25.57,86.93ZM9.91,82.44c1.41-.32,3.71.79,4-1.41.26-1.9-1.81-1.62-3.06-1.5-1.43.14-2.56,0-3.18,1.58C7,83,8.62,82.25,9.91,82.44Z"/><path class="cls-3" d="M11.35,3.21q0,33.44.05,66.88a14.42,14.42,0,0,0-8.31,2.62V38.36c0-9.08,0-18.15,0-27.23C3.13,5.34,5.54,3.09,11.35,3.21Z"/><path class="cls-4" d="M17.82,27.72c0-7.74,0-15.25,0-22.77,0-1.49.72-2,2.06-1.87.25,0,.5,0,.75,0,10.8-.4,10.8-.4,10.8,10.27V27.76c-3-.69-4.22-4.19-6.84-4.26S20.82,26.82,17.82,27.72Z"/><path class="cls-5" d="M67.34,66.55c.55,2.88-.24,4.27-3,3.86-1.11-.17-3,.44-2.71-1.49a5.59,5.59,0,0,1,4.69-4.68C68.3,63.9,67.09,66,67.34,66.55Z"/><path class="cls-5" d="M67.3,6.72c-.17.43.9,2.54-1.17,2.15a5.4,5.4,0,0,1-4.41-4.54c-.25-1.74,1.56-1.06,2.53-1.2C66.53,2.81,68,3.47,67.3,6.72Z"/><path class="cls-6" d="M25.57,86.93c-5.35,0-10.7,0-16,0-1.18,0-2.83.31-2.74-1.58C6.85,83.8,8.31,84,9.4,84q16.25,0,32.49,0c1.1,0,2.55-.14,2.56,1.4,0,1.84-1.64,1.5-2.82,1.51C36.28,87,30.93,86.93,25.57,86.93Z"/><path class="cls-6" d="M69.05,21.94a1.54,1.54,0,0,0,1.55-1.55V12.13h0v-9C70.64-1,67.36.49,65.26,0H20.31c-5,.57-10-.72-14.92,1L2.53,3.19C-1,7.7.55,13.07,0,18.09V78c.05,2.58.22,5.16.1,7.73C0,88.46,1.34,90.61,2.51,92.88L5.4,95.07c4.88,1.74,10,.43,14.93,1H65.24c2.11-.49,5.41,1,5.36-3.14V35.43h0V27.16a1.55,1.55,0,0,0-1.55-1.55h0s0,0,0,0l-.07,0a1.54,1.54,0,0,0-1.43,1.53v.69c0,.5,0,1,0,1.53v1c0,9.18,0,18.35,0,27.52,0,2.06-.45,3.07-2.55,3.7A9.41,9.41,0,0,0,58.73,68c-.49,1.54-1.09,2.28-2.8,2.27-14.84-.11-29.68-.14-44.53-.2a14.42,14.42,0,0,0-8.31,2.62V38.36c0-9.08,0-18.15,0-27.23,0-5.79,2.44-8,8.25-7.92C14.05,2.56,15,3.4,15,6.36c-.21,7.84-.09,15.68-.06,23.52,0,1.06-.37,2.41.89,3s2-.69,2.85-1.29c2.12-1.43,3.67-4.67,6.06-4.37,2.08.26,3.87,2.87,5.79,4.44.85.68,1.65,1.91,2.86,1.22,1-.6.91-1.94.91-3.07,0-8,.09-15.92,0-23.89,0-2.31.64-3,2.93-2.9,6.09.16,12.2.12,18.3,0,1.87,0,2.81.41,3.41,2.39a9.11,9.11,0,0,0,6.38,6.3,2.67,2.67,0,0,1,2.27,2.65v6A1.55,1.55,0,0,0,69.05,21.94Zm-7.42,47a5.59,5.59,0,0,1,4.69-4.68c2-.34.77,1.77,1,2.31.55,2.88-.24,4.27-3,3.86C63.23,70.24,61.36,70.85,61.63,68.92ZM14.89,73H63.55l2.62,0c.68,0,1.25.21,1.3,1s-.62.91-1.25.92c-.87,0-1.75,0-2.62,0H13.81c-.87,0-1.75,0-2.62,0s-1.55.36-1.63,1.21c-.09,1.06.7,1.55,1.65,1.63,1.12.08,2.25,0,3.37,0q24.53,0,49,0c1.27,0,2.7-.54,4.12.81-1.45,1.25-2.87.73-4.15.74-14,0-27.95,0-41.92,0-.88,0-1.75,0-2.62,0s-1.79.32-1.73,1.48.94,1.36,1.86,1.4,1.75,0,2.62,0q21,0,41.93,0c1.25,0,2.64-.37,3.8.47C67.18,84.44,66.12,84,65.38,84c-5,0-10,0-15,0-1.1,0-2.51-.12-2.45,1.5s1.46,1.41,2.55,1.41c4.49,0,9,0,13.48,0,1.15,0,2.45-.5,3.65.67-1,1.46-2.46.84-3.64.85q-24.89.06-49.79,0c-1,0-2-.05-3,0s-1.75.52-1.64,1.6a1.49,1.49,0,0,0,1.59,1.27c1,0,2,0,3,0q24.7,0,49.41,0c1.28,0,2.7-.5,3.9.5-.24,1.64-1.51,1-2.33,1Q38,93.06,10.86,93c-5.34,0-7.67-2.45-7.78-7.82C2.86,74.45,4.23,73,14.89,73ZM31.42,27.76c-3-.69-4.22-4.19-6.84-4.26s-3.76,3.32-6.76,4.22c0-7.74,0-15.25,0-22.77,0-1.49.72-2,2.06-1.87.25,0,.5,0,.75,0,10.8-.4,10.8-.4,10.8,10.27ZM66.13,8.87a5.4,5.4,0,0,1-4.41-4.54c-.25-1.74,1.56-1.06,2.53-1.2,2.28-.32,3.72.34,3,3.59C67.13,7.15,68.2,9.26,66.13,8.87Z"/><rect class="cls-6" x="6.82" y="79.48" width="7.3" height="2.96" rx="1.48"/></g></g></svg>