<svg xmlns="http://www.w3.org/2000/svg" viewBox="0 0 82.53 95.77"><defs><style>.cls-1{fill:#0b0a0a;}.cls-2{fill:#d64a71;}.cls-3{fill:#b7365e;}.cls-4{fill:#ebebeb;}</style></defs><g id="Ebene_2" data-name="Ebene 2"><g id="Ebene_4" data-name="Ebene 4"><path class="cls-1" d="M71.18,14.29l.66.72c-.06.62-.12,1.24-.19,1.85a4.66,4.66,0,0,1-1.82,0C65.34,15,61,13.69,57.52,18.66a1.12,1.12,0,0,1-1.66.22,1.26,1.26,0,0,1-.39-1.68c2.26-3.18.2-3.67-2.36-4a1.36,1.36,0,0,1-1.25-1.59c.16-.85.9-1.11,1.72-1.11a7.16,7.16,0,0,1,4.56,1.4c.7.55,1.41,1.25,2.29.63s.45-1.6.34-2.44C60.1,4.93,54.89,2,49.51,3.76c-6,2.46-7.82,8.7-3.56,13.46,1.73,1.93,1.87,3.18.64,5.43-3.34,6.13-1.08,12.53,5.14,15.56a8.71,8.71,0,0,0,7.09,1c1-.22,2.16-.06,2.41,1.11s-.88,1.54-1.88,1.74c-1.23.25-2.47.44-2.33,2.22.08,1,0,2.16-1.41,2.08s-1.53-1.21-1.47-2.18c.14-2.18-1.33-2.33-2.86-2.5-1.31-1.11-2.41-1.32-3.71.22-3.41,4.06-3.39,11.26.18,15.15,1,1.09,2,1.94,3.47.76,1.22-.15,2.44-.26,3.65-.47s2.38-.39,2.66,1.06-1,1.44-2,1.72c-1.51.45-3,.88-4.56,1.31-5.42,2.3-7.27,8-4.13,12.69.74,1.12,1.8,2.09,1.66,3.61l-.63.68a6.61,6.61,0,0,0-4.58,6.89C43.4,88.52,44.63,91.06,48,92c6,2,9.42-.44,8.9-6.42-.08-1-.55-2.24.85-2.42,1.73-.23,1.8,1.46,2.11,2.55C61,89.53,62,90,65.39,87.85a9.73,9.73,0,0,0,4.43-5.79c.53-1.92,1.45-4.74-.51-5.35-2.2-.69-5.52-2.84-7.5,1-.42.81-1.06,1.93-2.31,1.14s-.73-1.88-.12-2.62c1.28-1.56,1.58-2.84,0-4.47-.76-.79-1.76-2.3-.25-3.22s2,.82,2.68,1.73A7.55,7.55,0,0,0,70.53,73c7-2.14,10.79-11.67,7.39-18.14-.44-.85-.76-2.15-2.07-1.5-1.11.55-2.94,0-3.27,1.89-.14.86-.31,1.71-.47,2.57s-.42,1.88-1.51,1.76c-1.27-.13-1.55-1.22-1.24-2.26.63-2.12.13-3.34-2.24-3.6A1.36,1.36,0,0,1,66,52,1.44,1.44,0,0,1,67.7,51c.86.08,1.71.36,2.58.4,6.06.35,10.46-4.16,8.83-9-1.07-3.19-2.42-3.71-5.2-2-1,.61-2,1.48-2.89.14-.76-1.13.37-1.73,1.06-2.41,4.37-4.28,5.4-9.35,3-15-.58-1.38-1.42-2.67-.74-4.25,1.63-.51,2.15.69,2.78,1.77,1.67,2.85,2,6,2.27,9.23-1.13,3.35-2.49,6.58,1.35,9.43,1.54,1.14,1.57,3.55,1.78,5.54l-1.65,4.49c-.36.94-1.9,1.47-1,2.84,1.52,2.34,1.67,5.11,2.46,7.67-.55,5.72-2.57,10.68-7.39,14.18-2,.5-2.2,1.69-1.94,3.61C73.93,84.6,69,91.31,62.16,92a11.26,11.26,0,0,0-6.83,3c-5.27,1.8-9.69.55-13.3-3.66-.07-.52-.12-1-.87-.68h0c-5.18,5.49-8.28,6.28-14.84,3.77a7,7,0,0,0-5.14-2.31C14,91.5,8.43,85,9.49,78.14c.39-2.59-.45-3.62-2.56-4.32a3.62,3.62,0,0,1-.15-2.55c2.06-.63,3.35,1.36,5.18,1.52,3.56,1.16,6.54.41,8.84-2.64.68-.91,1.12-2.66,2.7-1.46,1.37,1,.28,2.45-.44,3.24-1.37,1.5-1.25,2.63,0,4.11.67.82,1.27,2.08-.08,2.89s-1.78-.45-2.27-1.24c-1-1.63-2.1-2.83-4.14-1.44-4.38.09-5.21,1.13-4,5.31,1.14,4,3.49,6.73,7.79,7.4,3.56.79,1.57-2.18,2.2-3.33s.63-2.75,2.26-2.44.85,1.75.74,2.79c-.42,4.09,1.71,6.66,5.82,6.8a7.33,7.33,0,0,0,7.41-4.65,7.24,7.24,0,0,0-2.64-8.94c-2.21-1.5-2.29-2.61-.82-4.73,4-5.82,1.11-12.46-5.88-13.83-1-.19-1.95-.39-2.91-.63s-1.79-.63-1.5-1.73,1.17-1.17,2.12-1,1.72.25,2.58.4c4.3.75,5.56,0,7.06-4.08a11.15,11.15,0,0,0-.68-9.72c-.74-1.31-1.4-3.55-3.19-2.93s-4.88.25-4.55,3.74a1.48,1.48,0,0,1-1.51,1.76c-1.16,0-1.38-.94-1.32-1.86a1.94,1.94,0,0,0-1.73-2.38c-1.12-.23-3-.18-2.42-2,.43-1.47,2-1,3.26-.84,4.71.69,8.25-1.24,10.84-5A10.33,10.33,0,0,0,36,22.71c-1.2-2.1-1.46-3.5.52-5.44,3-2.9,3.07-6.83.93-10.28s-5.34-4.54-9.64-3.34c-2.06.09-3.38,1.37-4.53,2.88-1.33,1.75-2.54,4.14-1.1,5.73s2.74-1.27,4.33-1.63c1.43.28,3.69-1.23,4.09,1.11.32,1.85-1.86,1.44-3.08,1.8-1.59.48-1.93,1.38-.88,2.74.65.86,1,1.94,0,2.63s-1.81-.35-2.41-1.11c-2.27-2.88-5.1-3.27-8.34-1.93C10.35,17.16,7.36,21,6.42,26.18c-.83,4.52.07,8.9,4.19,11.9.59.86,2,1.76.59,2.77-1.23.89-2.58.35-3.53-.87-1.22-2.09-2.23-.75-3.11.27C1.21,44.17,3.37,49.13,9.1,50.76a8.64,8.64,0,0,0,5.48.24c.9-.18,1.83,0,2,1.17a1.38,1.38,0,0,1-1.26,1.59c-2.2.22-2.75,1.35-2.16,3.32.32,1.06.2,2.24-1,2.47-1.57.3-1.43-1.25-1.91-2.2C9.69,56.21,10.9,54,8.34,54,6,52.41,4.78,53.62,4.1,55.87A13.38,13.38,0,0,0,4,64.55c.48,1.3.92,2.56.34,3.93-1.65.15-2.45-.76-2.78-2.24L.12,59.88c0-.37,0-.79,0-1.1,0-1.9,2.51-9.27-.11-13.87.2-2,.24-4.38,1.76-5.54,3.75-2.86,2.55-6.06,1.37-9.43a18.56,18.56,0,0,1,6-14.1l2.17-1.56c1.75-.57,3.47-1.26,5.25-1.66a2.36,2.36,0,0,0,2.2-2.43c.32-4.17,2.77-7,6.21-9.06L26.3.56a14.37,14.37,0,0,1,8.91.36A23.84,23.84,0,0,1,40.52,6c1,1.22,1.08,1.27,1.48.49A14.38,14.38,0,0,1,47.37,1,14,14,0,0,1,56.26.56l1.37.57c3.47,2.22,6,5.1,6.21,9.44.06,1.19.66,1.9,1.77,1.94C67.65,12.6,69.29,13.81,71.18,14.29Zm-30.39,1c-.11,2.79-3.51,3.77-1.89,7,2.55,5.1,1.89,10.2-1.75,14.66-1.12,1.38-.94,2,.05,3.39,4.37,5.95,4.37,12.16,0,18.27-1,1.44-.92,2.06.15,3.36,3.23,3.92,3.79,8.38,1.24,12.82-1.61,2.81,1.43,3.24,2,4.9.26.74,1.12.64,1.39,0,.63-1.63,3.5-2.14,2-4.93a10.55,10.55,0,0,1,1.42-12.81c1.26-1.44.83-2.06-.09-3.33-4.36-6-4.32-12.17.15-18.26,1-1.39,1-2.09,0-3.4-3-3.7-4.37-8.18-2.5-12.57C44.37,20.73,43.67,18.3,40.79,15.24Z"/><path class="cls-2" d="M71.65,16.86l2.7,2.07c-.68,1.58.16,2.87.74,4.25,2.39,5.6,1.36,10.67-3,15-.69.68-1.82,1.28-1.06,2.41.9,1.34,1.93.47,2.89-.14,2.78-1.75,4.13-1.23,5.2,2,1.63,4.86-2.77,9.37-8.83,9-.87,0-1.72-.32-2.58-.4A1.44,1.44,0,0,0,66,52a1.36,1.36,0,0,0,1.15,1.67c2.37.26,2.87,1.48,2.24,3.6-.31,1,0,2.13,1.24,2.26,1.09.12,1.34-.88,1.51-1.76s.33-1.71.47-2.57c.33-1.93,2.16-1.34,3.27-1.89,1.31-.65,1.63.65,2.07,1.5,3.4,6.47-.37,16-7.39,18.14a7.55,7.55,0,0,1-8.7-2.68c-.7-.91-1.08-2.72-2.68-1.73s-.51,2.43.25,3.22c1.56,1.63,1.26,2.91,0,4.47-.61.74-1,1.89.12,2.62s1.89-.33,2.31-1.14c2-3.88,5.3-1.73,7.5-1,2,.61,1,3.43.51,5.35a9.73,9.73,0,0,1-4.43,5.79C62,90,61,89.53,59.88,85.73c-.31-1.09-.38-2.78-2.11-2.55-1.4.18-.93,1.46-.85,2.42.52,6-2.85,8.42-8.9,6.42-2.34-4.51-1.61-9-.1-13.6l.63-.68c1.5.08,3.27-.07,1.93-2.07-3.3-5-1.7-9.57.54-14.23,1.52-.43,3-.86,4.56-1.31.92-.28,2.2-.41,2-1.72S56,57.15,54.87,57.35s-2.43.32-3.65.47c-4.45-4.45-4.15-13.55.06-16.13,1.53.17,3,.32,2.86,2.5-.06,1,.18,2.12,1.47,2.18s1.49-1.1,1.41-2.08c-.14-1.78,1.1-2,2.33-2.22,1-.2,2.16-.42,1.88-1.74s-1.4-1.33-2.41-1.11a8.71,8.71,0,0,1-7.09-1c.12-1.41-1.07-2.18-1.61-3.27-1.29-2.58-3-5.4-2-8.12,1.68-4.4,2.18-8-.72-12.38-2.36-3.53.49-7.26,2.07-10.68C54.89,2,60.1,4.93,60.77,10.07c.11.84.51,1.84-.34,2.44s-1.59-.08-2.29-.63a7.16,7.16,0,0,0-4.56-1.4c-.82,0-1.56.26-1.72,1.11a1.36,1.36,0,0,0,1.25,1.59c2.56.35,4.62.84,2.36,4a1.26,1.26,0,0,0,.39,1.68,1.12,1.12,0,0,0,1.66-.22c3.49-5,7.82-3.7,12.31-1.78A4.66,4.66,0,0,0,71.65,16.86ZM56.37,27.51c-2-.21-3.6-.81-3.84.92-.3,2.12,1.82,1.46,3,1.87a2.54,2.54,0,0,0,1.47,0c3.35-.95,5.61-.14,6.26,3.62a1.36,1.36,0,0,0,1.63,1.19c1.1-.23,1.24-1.16,1.09-2a5.42,5.42,0,0,0-.79-2.44c-1.32-1.62-1.12-2.71.63-3.84,1-.61,2.42-1.56,1.23-2.94s-2.2.19-3.1.82A13.77,13.77,0,0,1,56.37,27.51Z"/><path class="cls-2" d="M16.53,76.25c2-1.39,3.12-.19,4.14,1.44.49.79,1,2,2.27,1.24s.75-2.07.08-2.89c-1.21-1.48-1.33-2.61,0-4.11.72-.79,1.81-2.19.44-3.24-1.58-1.2-2,.55-2.7,1.46-2.3,3-5.28,3.8-8.84,2.64a2.38,2.38,0,0,0-.66-2.05C6.84,65.78,6.79,60,8.34,54c2.56,0,1.35,2.21,1.93,3.35.48.95.34,2.5,1.91,2.2,1.15-.23,1.27-1.41,1-2.47-.59-2,0-3.1,2.16-3.32a1.38,1.38,0,0,0,1.26-1.59c-.14-1.14-1.07-1.35-2-1.17a8.64,8.64,0,0,1-5.48-.24c-1.72-3.43-3-6.92-1.43-10.78.95,1.22,2.3,1.76,3.53.87,1.4-1,0-1.91-.59-2.77,1.13-.94,1.62-1.85.85-3.46-1.77-3.69-1.55-7.44-.39-11.42.89-3.07,3.9-4.44,4.77-7.33,3.24-1.34,6.07-.95,8.34,1.93.6.76,1.3,1.85,2.41,1.11s.66-1.77,0-2.63c-1.05-1.36-.71-2.26.88-2.74,1.22-.36,3.4.05,3.08-1.8-.4-2.34-2.66-.83-4.09-1.11-1.52-1-.62-2.13-.15-3.23s1.45-2.31,1.45-3.75Q34.22,1.85,37.41,7c2.14,3.45,2,7.38-.93,10.28-2,1.94-1.72,3.34-.52,5.44a10.33,10.33,0,0,1-.5,11.62c-2.59,3.79-6.13,5.72-10.84,5-1.24-.19-2.83-.63-3.26.84-.53,1.8,1.3,1.75,2.42,2a1.94,1.94,0,0,1,1.73,2.38c-.06.92.16,1.82,1.32,1.86a1.48,1.48,0,0,0,1.51-1.76c-.33-3.49,2.81-3.13,4.55-3.74s2.45,1.62,3.19,2.93a11.15,11.15,0,0,1,.68,9.72c-1.5,4.11-2.76,4.83-7.06,4.08-.86-.15-1.72-.27-2.58-.4s-1.86,0-2.12,1,.61,1.51,1.5,1.73,1.94.44,2.91.63c7,1.37,9.9,8,5.88,13.83-1.47,2.12-1.39,3.23.82,4.73a7.24,7.24,0,0,1,2.64,8.94,7.33,7.33,0,0,1-7.41,4.65c-4.11-.14-6.24-2.71-5.82-6.8.11-1,.87-2.49-.74-2.79s-1.68,1.39-2.26,2.44,1.36,4.12-2.2,3.33c0-1.25-1.05-1.89-1.71-2.76A10.79,10.79,0,0,1,16.53,76.25Zm9.31-45.82a4.72,4.72,0,0,0,1.2-.12c1.13-.44,3.26.24,3-1.89-.24-1.71-1.87-1.07-3.07-1-3.13.22-5.8-1-8.31-2.73-.91-.63-1.85-2.28-3.1-.83s.27,2.33,1.22,2.94c1.75,1.13,2,2.22.63,3.84a5.41,5.41,0,0,0-.78,2.44c-.16.89,0,1.82,1.08,2A1.38,1.38,0,0,0,19.31,34C20,29.89,22.54,29.38,25.84,30.43Z"/><path class="cls-3" d="M49.51,3.76c-1.58,3.42-4.43,7.15-2.07,10.68,2.9,4.33,2.4,8,.72,12.38-1,2.72.67,5.54,2,8.12.54,1.09,1.73,1.86,1.61,3.27-6.22-3-8.48-9.43-5.14-15.56,1.23-2.25,1.09-3.5-.64-5.43C41.69,12.46,43.48,6.22,49.51,3.76Z"/><path class="cls-3" d="M15.84,15.87C15,18.76,12,20.13,11.07,23.2c-1.16,4-1.38,7.73.39,11.42.77,1.61.28,2.52-.85,3.46-4.12-3-5-7.38-4.19-11.9C7.36,21,10.35,17.16,15.84,15.87Z"/><path class="cls-3" d="M6.78,71.27a5.62,5.62,0,0,1-2.46-2.79c.57-1.37.13-2.63-.35-3.93a13.38,13.38,0,0,1,.13-8.68C4.78,53.62,6,52.41,8.34,54c-1.55,6-1.5,11.78,3,16.74A2.38,2.38,0,0,1,12,72.79C10.13,72.63,8.84,70.64,6.78,71.27Z"/><path class="cls-3" d="M51.28,41.69c-4.21,2.58-4.51,11.68-.06,16.13-1.47,1.18-2.47.33-3.47-.76-3.57-3.89-3.59-11.09-.18-15.15C48.87,40.37,50,40.58,51.28,41.69Z"/><path class="cls-3" d="M16.53,76.25a10.79,10.79,0,0,0,2.08,10c.66.87,1.67,1.51,1.71,2.76-4.3-.67-6.65-3.45-7.79-7.4C11.32,77.38,12.15,76.34,16.53,76.25Z"/><path class="cls-3" d="M51,61.44c-2.24,4.66-3.84,9.26-.54,14.23,1.34,2-.43,2.15-1.93,2.07.14-1.52-.92-2.49-1.66-3.61C43.75,69.39,45.6,63.74,51,61.44Z"/><path class="cls-3" d="M7.67,40c-1.53,3.86-.29,7.35,1.43,10.78-5.73-1.63-7.89-6.59-4.54-10.51C5.44,39.23,6.45,37.89,7.67,40Z"/><path class="cls-3" d="M47.92,78.42C46.41,83,45.68,87.51,48,92c-3.39-1-4.62-3.5-4.68-6.71A6.61,6.61,0,0,1,47.92,78.42Z"/><path class="cls-3" d="M27.77,3.65c0,1.44-.93,2.52-1.45,3.75s-1.37,2.22.15,3.23c-1.59.36-2.92,3.2-4.33,1.63s-.23-4,1.1-5.73C24.39,5,25.71,3.74,27.77,3.65Z"/><path class="cls-4" d="M42,91.31l-.87-.68C41.91,90.27,42,90.79,42,91.31Z"/><path class="cls-1" d="M56.37,27.51a13.77,13.77,0,0,0,7.54-2.82c.9-.63,1.85-2.27,3.1-.82s-.27,2.33-1.23,2.94c-1.75,1.13-2,2.22-.63,3.84a5.42,5.42,0,0,1,.79,2.44c.15.89,0,1.82-1.09,2A1.36,1.36,0,0,1,63.22,34c-.65-3.76-2.91-4.57-6.26-3.62a2.54,2.54,0,0,1-1.47,0c-1.14-.41-3.26.25-3-1.87C52.77,26.7,54.4,27.3,56.37,27.51Z"/><path class="cls-1" d="M25.84,30.43c-3.3-1.05-5.83-.54-6.53,3.52a1.38,1.38,0,0,1-1.64,1.19c-1.09-.23-1.24-1.16-1.08-2a5.41,5.41,0,0,1,.78-2.44c1.33-1.62,1.12-2.71-.63-3.84-.95-.61-2.42-1.56-1.22-2.94s2.19.2,3.1.83c2.51,1.74,5.18,2.95,8.31,2.73,1.2-.08,2.83-.72,3.07,1,.3,2.13-1.83,1.45-3,1.89A4.72,4.72,0,0,1,25.84,30.43Z"/></g></g></svg>