<?xml version="1.0" encoding="utf-8"?>
<!-- Generator: Adobe Illustrator 25.4.1, SVG Export Plug-In . SVG Version: 6.00 Build 0)  -->
<svg version="1.1" id="Ebene_1" xmlns="http://www.w3.org/2000/svg" xmlns:xlink="http://www.w3.org/1999/xlink" x="0px" y="0px"
	 viewBox="0 0 196.7 155.8" style="enable-background:new 0 0 196.7 155.8;" xml:space="preserve">
<style type="text/css">
	.st0{fill:#F0E376;}
	.st1{fill:#ED3B72;}
</style>
<g id="Ebene_2_00000153690519425106000970000012437478401903397309_">
	<g id="Ebene_4">
		<path d="M73.7,40c0-8.8,0-16.9,0-25c0-10.3,4.6-14.9,15-14.9C119.7,0,150.6,0,181.6,0c10.7,0,15.1,4.5,15.1,15.3
			c0,24.1,0,48.3,0,72.4c0,12.4-2.6,15.5-15.2,17.5v10.9c-5.8-3.2-10.7-6.3-15.8-8.7c-3.1-1.5-6.4-2.4-9.8-2.6
			c-10.8-0.3-21.6-0.1-32.9-0.1c0,8.6,0,16.7,0,24.8c0,10.7-4.4,15.1-15.2,15.1c-21.5,0-43,0.1-64.4-0.1c-5-0.2-9.9,1.1-14.1,3.7
			c-4,2.6-8.4,4.7-13.4,7.6v-10.6C3.1,143.4,0,139.9,0,127.8c0-24.3,0-48.6,0-72.9C0,44.6,4.7,40,15,40H73.7z M175.1,98.4h6.2
			c7.2-0.1,9.2-2,9.2-9.2c0.1-24.7,0.1-49.3,0-73.9c0-7-2.1-9-8.9-9c-31,0-61.9,0-92.9,0c-6.6,0-8.7,2.1-8.7,8.6c0,25,0,50,0,74.9
			c0,6.6,2.1,8.6,8.7,8.6c19.5,0,39,0.2,58.4-0.1c9.3-0.1,18.3-0.3,26.1,5.9c0.3,0.2,0.9,0.1,1.5,0.2
			C174.9,102.6,175,101,175.1,98.4z M116.7,104.7c-10.1,0-19.4,0-28.7,0s-14.2-4.8-14.2-14.1c-0.1-10,0-20,0-29.9V47
			c-0.6-0.3-1.3-0.5-2-0.6c-19.6,0-39.3-0.1-58.9,0c-4.2,0-6.4,2.5-6.4,6.7c0,26.1,0,52.2,0,78.4c0,4.5,2.5,6.6,6.9,6.8
			c2.6,0.1,5.2,0,8,0c0.3,2.4,0.6,4.3,1,7.4c10.1-9.9,22.1-7.3,33.5-7.4c17.8-0.1,35.6-0.1,53.4,0c4.1,0,7.3-1.4,7.4-5.6
			C117,123.5,116.7,114.4,116.7,104.7z"/>
		<path class="st0" d="M175.1,98.4c-0.2,2.6-0.2,4.3-0.4,6c-0.6-0.1-1.2,0-1.5-0.2c-7.8-6.1-16.8-6-26.1-5.9
			c-19.5,0.2-39,0.1-58.4,0.1c-6.7,0-8.7-1.9-8.7-8.6c0-25,0-50,0-74.9c0-6.6,2.1-8.6,8.7-8.6c31,0,61.9,0,92.9,0c6.8,0,8.9,2,8.9,9
			c0.1,24.7,0.1,49.3,0,73.9c0,7.2-2,9.1-9.2,9.2L175.1,98.4z"/>
		<path class="st1" d="M116.7,104.7c0,9.7,0.2,18.8-0.1,27.9c-0.2,4.2-3.4,5.6-7.4,5.6c-17.8-0.1-35.6-0.1-53.4,0
			c-11.5,0.1-23.5-2.5-33.5,7.4c-0.4-3.1-0.7-5-1-7.4c-2.8,0-5.4,0.1-8,0c-4.3-0.1-6.9-2.2-6.9-6.8c0-26.1,0-52.2,0-78.4
			c0-4.2,2.2-6.7,6.4-6.7c19.6-0.1,39.3,0,58.9,0c0.7,0.1,1.4,0.3,2,0.6v13.7c0,10,0,20,0,29.9c0.1,9.3,4.8,14,14.2,14.1
			S106.6,104.7,116.7,104.7z"/>
	</g>
</g>
</svg>
