<svg xmlns="http://www.w3.org/2000/svg" viewBox="0 0 95.88 90.98"><defs><style>.cls-1{fill:#0b0a0a;}.cls-2{fill:#5abac7;}.cls-3{fill:#d64a71;}.cls-4{fill:#243a5e;}.cls-5{fill:#f0e376;}.cls-6{fill:#b7365e;}.cls-7{fill:#d2c35f;}.cls-8{fill:#4a9da1;}</style></defs><g id="Ebene_2" data-name="Ebene 2"><g id="Ebene_4" data-name="Ebene 4"><path class="cls-1" d="M47.14,6.45l1-3.39C50.78-.15,54.4,0,58,0c1.61,0,3.22,0,4.83,0,2.39,1,4.88.4,7.31.38A5.77,5.77,0,0,1,76,4.18c1.1,2.5.86,5.1-1.26,6.82-3.33,2.7-1.53,6.15-1.78,9.27-.09,1.16,1.32.72,2.1.82,1.77.24,3.79-.62,5.2,1.2-.91,2.77-3.57,1-5.16,2-2.26-.66-4.41-.69-6,1.34a2.58,2.58,0,0,0,0,3.13c1.37,2.29,3.6,1.64,5.65,1.6a1.76,1.76,0,0,0,.37-.08c3.81.06,7.62.14,11.43.16,2,0,3.34-.91,3.48-3,.13-1.92-1.06-2.88-2.8-3.32-1.24-.31-2.87,0-3.21-1.83,3.23-2.51,5.67-.58,8.07,1.46a9.28,9.28,0,0,1,.78,5.61c-4.43,3.64-4,7.4-.76,11.73,2.21,3,2.64,6.83,3.74,10.33a48.7,48.7,0,0,1-.78,13.79c-.76,2.17-1.53,4.34-2.29,6.5-2.26,2.8-4,5.78-3.22,9.59-1.5,6.5-4.72,9.15-11.34,9.32C73,87.76,68,90.41,62.93,90.83c-5-1-10-.36-14.93.14a104.16,104.16,0,0,0-15,0,106.7,106.7,0,0,0-15,0c-1.35-.07-2.7-.18-4.05-.21-3.68-.1-7.46.47-10.84-1.62A9.38,9.38,0,0,1,0,81.31l3.15-6.5c.71-1.1,1.44-2.19,2.15-3.3.89-1.38,1.36-3.23,3.58-3,.56,1.58-.08,2.89-.88,4.21-1.35,2.24-2.72,4.47-3.94,6.78C1.85,83.7,3.65,87.33,8.4,87.8a78.67,78.67,0,0,0,9-.07c11.34,0,22.69.26,34,.09,5.46-.08,7.46-3.92,4.79-8.71C52.47,72.48,48.56,66,44.82,59.35a3.54,3.54,0,0,0-3.56-2.06c-6.24.13-12.47.12-18.7.16-4-.93-6.84.27-8.32,4.34-.53,1.47-1.43,2.91-3.41,2.88-.74-1.44-.05-2.61.64-3.83,1.76-3.13,3.48-6.28,5.22-9.42A13.87,13.87,0,0,0,20.2,41c-.31-4.68-.15-9.38-.07-14.07,0-1.64-.26-2.92-2-3.5l-1.26-2.11C16,18.42,17.06,16.11,19,14c4.49-2.22,9.37-.53,14-1.38,1,.08,2,.22,2.95.25,6.21.18,8.2,2.39,7.64,8.53-3.41,4.32-3.41,4.32-2.5,8.36,1.17-.78,2.19-1.89,3.41-2.19,7-1.72,7-6.88,6.61-12.5-.12-2-.59-3.29-2.3-4.17A11,11,0,0,1,47.14,6.45ZM26.3,22.07l10.81.14c2.2,0,3.72-.93,3.75-3.2s-1.64-3.28-3.72-3.28c-3.59,0-7.2-.39-10.78.25-2.2-.49-4.4-.78-6.12,1.13A2.73,2.73,0,0,0,20,20.53c1.46,2.39,3.85,1.57,6,1.6A2.25,2.25,0,0,0,26.3,22.07ZM57.05,3.15c-4.6-.51-6.78.58-6.82,3.42s1.84,3.76,6.42,3.55a1.72,1.72,0,0,0,.37-.07c4.08.06,8.17.13,12.26.15,2.4,0,4.21-.9,4.22-3.59S71.62,3,69.3,2.93C65.22,2.9,61.14,3.06,57.05,3.15ZM75.74,33.56c-3.15-.83-4.22.48-3.81,3.55a16.47,16.47,0,0,1,0,4c-.41,3.22,1.13,3.85,3.85,3.1,2.84.07,5.68.1,8.52.23,1.52.07,2.13-.47,2.31-2.07,1-8.75.79-9-7.91-9C77.71,33.43,76.72,33.51,75.74,33.56Zm-18-20.29c-3.29-.84-4.17.68-3.86,3.71.21,2-.08,4,.07,6,.19,2.46-.6,3.88-3.12,4.69a26.92,26.92,0,0,0-9.28,5.48c-.71.61-1.27,1.29-1,2.23s1.2.76,1.92.74c2.61-.05,5.22-.15,7.82-.23,5.1,0,10.19.13,15.28.09,1.11,0,2.65.76,3.25-.89.53-1.48-.36-2.44-1.39-3.51C65,29,64.7,25.17,67.3,23.28c2.78-2,2.43-4.47,2.56-7.14.11-2.13-.31-3.22-2.79-3C64,13.36,60.85,13.24,57.75,13.27Zm-31.45,12c-2.9-.68-3.39.64-3.54,3.35-.47,8.6,2.53,17.73-4.26,25.64H42.4C36.55,48.42,37.59,42,37.48,35.67c-.06-3.42,1.59-8.23-.7-9.9S29.88,25.31,26.3,25.27ZM75.67,47.56c-1.5,0-3.71-1.47-3.71,1.72,0,10.52-.11,21,.13,31.57.07,3.45,2,6.07,5.87,6.4,5.3.82,8.42-1.89,8.54-7.82.15-7.58,0-15.16,0-22.74,0-10,0-10-10.16-9.35A3.64,3.64,0,0,0,75.67,47.56ZM59.43,87.31c2.62,0,4.85.12,7.06,0,2.59-.16,4.73-.67,2.87-4.19-.63-1.21-.38-2.93-.39-4.41,0-12.21,0-24.42,0-36.63,0-1.57.41-3.35-2.22-3.33-8,.08-16,.05-23.93.07-1,0-2.21,0-2.16,1.41.09,2.43-.62,4.88.78,7.28C46.75,56.61,51.86,65.87,57.25,75,59.51,78.8,61.74,82.46,59.43,87.31ZM89.49,43.54V69.62C93.84,65.42,94.18,49.18,89.49,43.54Z"/><path class="cls-2" d="M75.06,24.29c1.59-1,4.25.77,5.16-2h3.67c.34,1.88,2,1.53,3.21,1.84,1.74.44,2.93,1.4,2.8,3.32-.14,2.09-1.5,3-3.48,3-3.81,0-7.62-.1-11.43-.16A11.38,11.38,0,0,1,75.06,24.29Z"/><path class="cls-3" d="M22.56,57.45c6.23,0,12.46,0,18.7-.16a3.54,3.54,0,0,1,3.56,2.06C48.56,66,52.47,72.48,56.17,79.11c2.67,4.79.67,8.63-4.79,8.71-11.34.17-22.69,0-34-.09-1.7-3.68-1.19-7.37-.13-11.1C19,70.25,20.78,63.84,22.56,57.45Z"/><path class="cls-4" d="M59.43,87.31c2.31-4.85.08-8.51-2.18-12.34-5.39-9.1-10.5-18.36-15.83-27.49-1.4-2.4-.69-4.85-.78-7.28,0-1.39,1.13-1.41,2.16-1.41,8,0,16,0,23.93-.07,2.63,0,2.22,1.76,2.22,3.33,0,12.21,0,24.42,0,36.63,0,1.48-.24,3.2.39,4.41,1.86,3.52-.28,4-2.87,4.19C64.28,87.43,62.05,87.31,59.43,87.31Z"/><path class="cls-5" d="M75.67,47.56a3.64,3.64,0,0,1,.71-.22c10.16-.69,10.16-.69,10.16,9.35,0,7.58.11,15.16,0,22.74-.12,5.93-3.24,8.64-8.54,7.82-4.57-8.55-1.31-18-2.79-27C74.56,56.56,75.3,51.82,75.67,47.56Z"/><path class="cls-2" d="M26.3,25.27c3.58,0,8.12-1.22,10.48.5s.64,6.48.7,9.9c.11,6.28-.93,12.75,4.92,18.59H24.06a58.18,58.18,0,0,0,2.22-19.34C26.08,31.71,26.28,28.49,26.3,25.27Z"/><path class="cls-6" d="M22.56,57.45c-1.78,6.39-3.52,12.8-5.34,19.18-1.06,3.73-1.57,7.42.13,11.1a78.67,78.67,0,0,1-9,.07c-4.75-.47-6.55-4.1-4.32-8.34C5.3,77.15,6.67,74.92,8,72.68c.8-1.32,1.44-2.63.88-4.21l.75-2.15,1.18-1.65c2,0,2.88-1.41,3.41-2.88C15.72,57.72,18.54,56.52,22.56,57.45Z"/><path class="cls-2" d="M57.75,13.27c3.1,0,6.22.09,9.32-.15,2.48-.2,2.9.89,2.79,3-.13,2.67.22,5.12-2.56,7.14-2.6,1.89-2.27,5.69.19,8.28,1,1.07,1.92,2,1.39,3.51-.6,1.65-2.14.88-3.25.89-5.09,0-10.18-.05-15.28-.09a5.63,5.63,0,0,1,2.12-3.79c5.83-4.46,5.65-10.65,5.23-17C57.66,14.5,57.73,13.89,57.75,13.27Z"/><path class="cls-7" d="M75.67,47.56c-.37,4.26-1.11,9-.5,12.71,1.48,9-1.78,18.43,2.79,27-3.92-.33-5.8-3-5.87-6.4-.24-10.52-.13-21-.13-31.57C72,46.09,74.17,47.58,75.67,47.56Z"/><path class="cls-8" d="M57.75,13.27c0,.62-.09,1.23,0,1.85.42,6.31.6,12.5-5.23,17a5.63,5.63,0,0,0-2.12,3.79c-2.6.08-5.21.18-7.82.23-.72,0-1.61.16-1.92-.74s.24-1.62,1-2.23a26.92,26.92,0,0,1,9.28-5.48c2.52-.81,3.31-2.23,3.12-4.69-.15-2,.14-4-.07-6C53.58,14,54.46,12.43,57.75,13.27Z"/><path class="cls-2" d="M75.74,33.56c1-.05,2-.13,3-.14,8.7-.05,8.9.23,7.91,9-.18,1.6-.79,2.14-2.31,2.07-2.84-.13-5.68-.16-8.52-.23C75.77,40.68,75.75,37.12,75.74,33.56Z"/><path class="cls-2" d="M57.05,3.15c4.09-.09,8.17-.25,12.25-.22,2.32,0,4.21,1,4.2,3.68s-1.82,3.6-4.22,3.59c-4.09,0-8.18-.09-12.26-.15C56.13,7.75,55.8,5.44,57.05,3.15Z"/><path class="cls-8" d="M26.3,25.27c0,3.22-.22,6.44,0,9.65a58.18,58.18,0,0,1-2.22,19.34H18.5c6.79-7.91,3.79-17,4.26-25.64C22.91,25.91,23.4,24.59,26.3,25.27Z"/><path class="cls-2" d="M26.36,16c3.58-.64,7.19-.24,10.78-.25,2.08,0,3.74,1,3.72,3.28s-1.55,3.23-3.75,3.2L26.3,22.07C25.57,20,25,18,26.36,16Z"/><path class="cls-4" d="M89.49,43.54c4.69,5.64,4.35,21.88,0,26.08Z"/><path class="cls-8" d="M75.74,33.56c0,3.56,0,7.12,0,10.68-2.72.75-4.26.12-3.85-3.1a16.47,16.47,0,0,0,0-4C71.52,34,72.59,32.73,75.74,33.56Z"/><path class="cls-8" d="M57.05,3.15c-1.25,2.29-.92,4.6,0,6.9a1.72,1.72,0,0,1-.37.07c-4.58.21-6.46-.83-6.42-3.55S52.45,2.64,57.05,3.15Z"/><path class="cls-8" d="M75.06,24.29a11.38,11.38,0,0,0-.07,6,1.76,1.76,0,0,1-.37.08c-2.05,0-4.28.69-5.65-1.6a2.58,2.58,0,0,1,0-3.13C70.65,23.6,72.8,23.63,75.06,24.29Z"/><path class="cls-8" d="M26.36,16C25,18,25.57,20,26.3,22.07a2.25,2.25,0,0,1-.36.06c-2.13,0-4.52.79-6-1.6a2.73,2.73,0,0,1,.28-3.42C22,15.2,24.16,15.49,26.36,16Z"/></g></g></svg>