<svg xmlns="http://www.w3.org/2000/svg" viewBox="0 0 184.71 195.46"><defs><style>.cls-1{fill:#fff;}.cls-2{fill:#4a9da1;}.cls-3{fill:#d64a71;}.cls-4{fill:#f0e376;}.cls-5{fill:#203b63;}</style></defs><g id="Ebene_2" data-name="Ebene 2"><g id="Ebene_4" data-name="Ebene 4"><path d="M.09,100.25C.09,85.09.2,69.93,0,54.78c0-3.67,1.24-5.68,4.44-7.43Q46.27,24.49,87.91,1.29c3.18-1.78,5.69-1.67,8.79,0q41.46,23,83.06,45.77c3.51,1.91,5,4.12,4.93,8.2q-.24,44.46,0,88.93c0,4.79-1.41,7.49-5.82,9.62Q137.81,173.78,97,194.22a9.42,9.42,0,0,1-9.35,0Q46.29,173.64,4.79,153.4C1.34,151.72,0,149.63,0,145.71.22,130.56.09,115.4.09,100.25Zm92.19-48C76.79,75.69,61.65,98.58,46.17,122h92.26ZM46.81,128.84l45.48,58.87,45.49-58.87ZM86.15,50,8.28,54.59,40.51,119Zm90.17,4.54L98.43,50l45.66,69ZM95.89,8.21V43.53l69.43,4.09.23-1Zm-7-.13-70,38.65.45.9L88.9,43.49Zm86,140.59-29.69-19L104.71,182l.63.84ZM79.06,182.84l.77-.87L39.32,129.61l-29.58,19Zm69.54-58.58L177.87,143V67.46l-.76-.16ZM7,66.32v76.5l29-18.59C26.44,105.19,17,86.4,7,66.32Z"/><path class="cls-1" d="M92.28,52.27,138.43,122H46.17C61.65,98.58,76.79,75.69,92.28,52.27Zm3.18,48.5h0c0,1.66-.08,3.32,0,5,.33,6.15,4.55,10.31,10.48,10.39a10.46,10.46,0,0,0,10.9-10.52,95.84,95.84,0,0,0-.07-10.45,10.66,10.66,0,0,0-21.25.12C95.35,97.1,95.46,98.94,95.46,100.77Zm-18.81-3.1a24.53,24.53,0,0,1,.43-2.9c.44-1.69.08-4.7,3.82-2.83,7.66-1.41,1.65,3.08,1.67,4.62,0,1.08-1.34,2.2-2.16,3.24-4.1,5.19-8.23,10.35-13.08,16.44H89v-6l-8.33-.56c2.59-3.26,4.64-5.82,6.65-8.41a10.37,10.37,0,0,0-.13-12.42,9.3,9.3,0,0,0-11.3-2.42c-4.21,2-5.76,6-4.39,11.23Z"/><path class="cls-2" d="M46.81,128.84h91L92.29,187.71Zm57.47,33.27V135.85L91.22,142.4c1,2,1.72,3.55,2.47,5.11l5-.79v15.39Z"/><path class="cls-3" d="M86.15,50,40.51,119,8.28,54.59ZM38.32,80.3l4.84,3.13,3.3-4c2.48,3,4.79,5.69,7.34,8.74l4.53-3.6C56,78.62,46,75.19,54.45,67.06l-5-3.38-3.68,4c-2.69-3.35-5.1-6.37-7.82-9.75L26.32,75.6,31.43,79l6.67-9.66C44.66,73.05,39.93,76.51,38.32,80.3Z"/><path class="cls-4" d="M176.32,54.56,144.09,119,98.43,50Zm-42.14,9.8c2.23,3.11,4.17,5.75,6,8.43,1.65,2.35,2.65,4.84-.09,7-2.93,2.34-5.28.91-7.17-1.65-2.45-3.31-4.83-6.68-7.44-10.3l-5.07,3.84c3.11,4.24,5.75,8.27,8.84,11.92a10.59,10.59,0,0,0,14,1.87,10.91,10.91,0,0,0,4-13.22,47.84,47.84,0,0,0-2.85-5.06L149.61,65l7.73,10.39,4.89-3.79c-3.11-4.38-5.78-8.38-8.75-12.14a4.22,4.22,0,0,0-3.66-1.22C144.7,60,139.71,62.15,134.18,64.36Z"/><path class="cls-5" d="M95.89,8.21l69.66,38.42-.23,1L95.89,43.53Z"/><path class="cls-5" d="M88.9,8.08V43.49L19.33,47.63l-.45-.9Z"/><path class="cls-5" d="M174.91,148.67l-69.57,34.21-.63-.84,40.51-52.39Z"/><path class="cls-5" d="M79.06,182.84,9.74,148.65l29.58-19L79.83,182Z"/><path class="cls-5" d="M148.6,124.26l28.51-57,.76.16V143Z"/><path class="cls-5" d="M7,66.32c10,20.08,19.44,38.87,29,57.91L7,142.82Z"/><path d="M95.46,100.77c0-1.83-.11-3.67,0-5.48a10.66,10.66,0,0,1,21.25-.12,95.84,95.84,0,0,1,.07,10.45,10.46,10.46,0,0,1-10.9,10.52c-5.93-.08-10.15-4.24-10.48-10.39-.09-1.66,0-3.32,0-5Zm6.24-.1h0c0,1.32-.46,2.9.1,3.93,1,1.93,2.44,4.67,4.14,5,3.07.67,4.66-1.85,4.73-4.94.05-2.82.54-5.8-.21-8.42-.5-1.77-2.75-4.14-4.29-4.19s-3.29,2.42-4.31,4.16C101.17,97.37,101.7,99.17,101.7,100.67Z"/><path d="M76.65,97.67H71.52c-1.37-5.27.18-9.19,4.39-11.23a9.3,9.3,0,0,1,11.3,2.42,10.37,10.37,0,0,1,.13,12.42c-2,2.59-4.06,5.15-6.65,8.41l8.33.56v6H67.33c4.85-6.09,9-11.25,13.08-16.44a17.37,17.37,0,0,0,2.16-3.24c.68-1.53.86-4.31-1.67-4.62-2.83-.14-3.43,1.48-3.82,2.83A21,21,0,0,0,76.65,97.67Z"/><path d="M104.28,162.11H98.64V146.72l-5,.79c-.75-1.56-1.51-3.14-2.47-5.11l13.06-6.55Z"/><path d="M86.36,162.11H80.72V146.72l-4.94.79L73.3,142.4l13.06-6.55Z"/><path d="M38.32,80.3c1.61-3.79,6.34-7.25-.22-11L31.43,79,26.32,75.6,37.91,57.93c2.72,3.38,5.13,6.4,7.82,9.75l3.68-4,5,3.38C46,75.19,56,78.62,58.33,84.53l-4.53,3.6c-2.55-3-4.86-5.79-7.34-8.74l-3.3,4Z"/><path d="M134.18,64.36c5.53-2.21,10.52-4.35,15.64-6.12a4.22,4.22,0,0,1,3.66,1.22c3,3.76,5.64,7.76,8.75,12.14l-4.89,3.79L149.61,65l-5.22,2.21a47.84,47.84,0,0,1,2.85,5.06,10.91,10.91,0,0,1-4,13.22,10.59,10.59,0,0,1-14-1.87c-3.09-3.65-5.73-7.68-8.84-11.92l5.07-3.84c2.61,3.62,5,7,7.44,10.3,1.89,2.56,4.24,4,7.17,1.65,2.74-2.18,1.74-4.67.09-7C138.35,70.11,136.41,67.47,134.18,64.36Z"/><rect class="cls-1" x="101.48" y="92.09" width="9.35" height="17.66" rx="4.68"/></g></g></svg>