<svg xmlns="http://www.w3.org/2000/svg" viewBox="0 0 209.63 233.53"><defs><style>.cls-1{fill:#ffda75;}.cls-2{fill:#49306a;}.cls-3{fill:#f67f72;}.cls-4{fill:#f6f4f6;}</style></defs><g id="Ebene_2" data-name="Ebene 2"><g id="Ebene_2-2" data-name="Ebene 2"><path class="cls-1" d="M192.33,16.38A55.64,55.64,0,0,0,152.87,0H56.8A55.77,55.77,0,0,0,15.92,17.79,55.66,55.66,0,0,0,.08,56.72v96.07a55.78,55.78,0,0,0,16.56,39.7,55.81,55.81,0,0,0,40.16,17h96.07a57.33,57.33,0,0,0,56.72-56.72V56.72A55.69,55.69,0,0,0,192.33,16.38Z"/><path class="cls-2" d="M207.58,41.63c-.13-.49-.28-.59-.45-1.32-7.1-2.62-12.33-8.69-20.9-8.48-18.66.45-37.35,0-56,.24A22.21,22.21,0,0,0,120,34.45a30.52,30.52,0,0,1-15.15,4.25v0a30.72,30.72,0,0,1-15.14-4.25A22.21,22.21,0,0,0,79.46,32.1c-18.68-.22-37.36.2-56-.24-8.57-.21-13.86,6-21,8.58-.11.27-.28.87-.37,1.15C-.21,49.25.17,57.6,0,65c-.08,3.81,4.87,7.12,5.66,11,1.28,6.21,1.77,12.57,2.68,18.85,1.46,10.12,9.15,17.25,19.51,17.4q23.53.36,47.07,0c10.58-.16,17.77-6.9,19.36-17.38,1.07-7.07,2.21-14.12,3.08-21.21.57-4.65,3.59-5.78,7.47-5.78v0c3.89,0,6.9,1.12,7.48,5.78.87,7.08,2,14.14,3.08,21.2,1.59,10.49,8.78,17.22,19.36,17.38q23.53.36,47.07,0c10.36-.16,18.05-7.29,19.51-17.41.91-6.28,1.4-12.64,2.68-18.84.78-3.84,5.64-7.4,5.62-11.22C209.59,56.72,209.59,49.07,207.58,41.63ZM83.3,54.64q-2.76,18.23-5.24,36.5c-.48,3.54-2.33,4.54-5.63,4.51q-21.15-.14-42.3,0c-3.32,0-4.95-1.08-5.41-4.68-1.57-12.39-3.37-24.76-5.32-37.1-.67-4.25,1.23-5.25,4.89-5.22,8.74.07,17.48,0,26.21,0,9.14,0,18.27.16,27.4-.07C82.47,48.48,84,50.23,83.3,54.64Zm107-.8c-2,12.34-3.76,24.7-5.33,37.09-.45,3.6-2.08,4.7-5.4,4.68q-21.15-.1-42.3,0c-3.3,0-5.16-1-5.63-4.51q-2.46-18.28-5.24-36.51c-.66-4.4.83-6.16,5.4-6,9.13.22,18.26.06,27.4.06,8.73,0,17.47.06,26.21,0C189,48.58,190.94,49.59,190.27,53.84Z"/><ellipse class="cls-3" cx="52.42" cy="86.81" rx="20.73" ry="5.86"/><ellipse class="cls-3" cx="157.21" cy="86.81" rx="20.73" ry="5.86"/><path class="cls-2" d="M104.76,125.45c10.3,0,20.6,0,30.89,0,7.89,0,11.45,4.93,9.18,12.42a41.89,41.89,0,0,1-80,.09c-2.3-7.51,1.22-12.46,9.05-12.51C84.17,125.4,94.47,125.45,104.76,125.45Zm15.44,11.36c.72-2.64-1.16-2.54-3.08-2.54-7.7,0-15.4,0-23.1,0-4.91,0-5.56.84-4.37,5.52a14.8,14.8,0,0,0,11.88,10.38c7.34.87,15.38-2.75,17.59-8.05A9.64,9.64,0,0,0,120.2,136.81Z"/><path class="cls-4" d="M120.27,136.81a9.73,9.73,0,0,1-1.08,5.33c-2.21,5.3-10.25,8.92-17.6,8.05a14.8,14.8,0,0,1-11.87-10.38c-1.19-4.68-.54-5.52,4.36-5.52,7.71,0,15.41,0,23.11,0C119.11,134.27,121,134.17,120.27,136.81Z"/><path class="cls-2" d="M54.61,80c-3.46-7.4-2.61-13.25,2.51-17.32a12.63,12.63,0,0,1,17,1.11,12.49,12.49,0,0,1,.07,17.35,41.17,41.17,0,0,1-3.23,2.79C64.63,86.13,59.13,85.06,54.61,80Z"/><path class="cls-2" d="M138.62,83.88c-8.8-7-9-17.25-.39-22.26A12.36,12.36,0,0,1,153,63.12a12.69,12.69,0,0,1,3,14.54c-.53,1.16-1.24,2.23-1.87,3.34C149.55,85.21,144.35,86,138.62,83.88Z"/><path class="cls-2" d="M123.49,210.5c-.73-6.32,2.23-10,8.21-12.1,10.36-3.72,20.53-8,30.83-11.88,5.77-2.18,7.39-1.08,6.18,5-2.46,12.28-3.27,24.48-1.06,36.87.81,4.54-1.36,6.15-5.75,4.62-10.58-3.67-21.16-7.37-31.75-11C124.63,220.06,122.94,216,123.49,210.5Z"/><path class="cls-2" d="M117.71,211.87a37.88,37.88,0,0,0-.24-8.34c-.42-6.75-2.53-7-12.46-7h-.58c-1.74,0-3.47,0-5.21,0-4.81.1-7.23,2.44-7.22,7.21a10.2,10.2,0,0,0-.08,3.42,36.69,36.69,0,0,0,.24,8.34c.42,6.75,2.53,7,12.47,7h.57c1.74,0,3.47,0,5.21,0,4.81-.09,7.23-2.43,7.22-7.21A10.13,10.13,0,0,0,117.71,211.87Z"/><path class="cls-2" d="M86.14,210.5c.73-6.32-2.23-10-8.21-12.1-10.36-3.72-20.53-8-30.83-11.88-5.77-2.18-7.39-1.08-6.18,5C43.38,203.76,44.19,216,42,228.35c-.81,4.54,1.36,6.15,5.75,4.62,10.58-3.67,21.16-7.37,31.75-11C85,220.06,86.69,216,86.14,210.5Z"/></g></g></svg>