<svg xmlns="http://www.w3.org/2000/svg" viewBox="0 0 178.26 196.39"><defs><style>.cls-1{fill:#203b63;}.cls-2{fill:#f0e376;}.cls-3{fill:#ed3b72;}.cls-4{fill:#4a9da1;}</style></defs><g id="Ebene_2" data-name="Ebene 2"><g id="Ebene_4" data-name="Ebene 4"><path class="cls-1" d="M80.12,118.3q0-31.47,0-62.94c0-7.85,1.48-9.3,9.34-9.3q36.72,0,73.44,0c7.28,0,9.09,1.83,9.1,9.15q0,63,0,125.9c0,7.42-1.63,9-9.22,9q-37,0-73.94,0c-7.25,0-8.69-1.45-8.69-8.85q0-31.47,0-62.95Zm6.2,16.49h79.16V52.46H86.32Zm67.06,31.27H98.73v5.61h54.65Zm-48.68-6.59h42.52v-5.78H104.7Zm38.18,18.8h-33.4v5.54h33.4Zm7.91-37v5.89h14.63v-5.89Zm-22,5.81v-5.56H123v5.56Zm-12.28-6-6,.26c.12,2.26.22,4,.33,6l5.66-.27Zm-12.23,6.05v-6l-5.9.26c.1,2.25.18,4,.26,5.75Zm-17.85.26,6.08-.38-.4-5.63H86.4Z"/><path class="cls-1" d="M92.64,12.38h-80V95.17H73.36v24.26H24.81v6.42H73.42v24.4h-14q-22.72,0-45.45,0c-5.59,0-7.61-1.91-7.61-7.41q0-64.68,0-129.37c0-5.18,2.06-7.15,7.36-7.15,25.64,0,51.28,0,76.92-.07,4.38,0,7.36,1.72,7.51,6.11.29,9,.09,17.92.09,27.28l-5.68.34Zm-57,125.4H69.29c-.1-2.12-.19-3.84-.27-5.58H35.64Zm1.43-36.45v5.73h5.82v-5.73Zm12.44,6.21,6-.41c-.14-2.26-.24-4-.33-5.52H49.51ZM24.66,107h6.22c-.14-2.16-.25-3.9-.38-5.89l-5.84.37Zm-12.11-.12c6.36,1.1,6.53.92,5.38-5.4H12.55Z"/><path class="cls-2" d="M67.35,77l-5.78-.65V50.92c0-2.66-.35-5.38.07-8-4.71-9.41-3.23-8.41-9.61-19.31C47.21,28,47.61,33,42.84,40.36c.93,11.57.18,23.27.13,34.91,0,.29-.27.58-.56,1.14l-5.34.5v5.84l5.68.59v5.23h-24V18.77H70C72.26,32,72.26,32,85.86,34.36c.06,1.52.13,3.11.2,4.59-11.38,4.69-12.4,6.27-12.4,18.72V88.5H61.84c-.09-1.55-.18-3.13-.29-5l5.8-.8Z"/><path class="cls-3" d="M85.64,26.82c-8.12,1.72-9.8.1-8.14-8.14h8.14Z"/><path class="cls-4" d="M55.19,83.4v5.17h-5.5V83.4Z"/><path d="M86.32,134.79V52.46h79.16v82.33Zm43-29.49v23.21h30.09V73.56c-11.84,1.84-16.61-3.9-15.24-14.87H92.68v69.86h29.67v-23l-11.74,5.57c.73-4.75,1.11-8.73,2-12.59.75-3.13.19-5.36-2.38-7.39-3.19-2.52-6.11-5.37-9.15-8.08a43.15,43.15,0,0,1,12.62-2.89c3.46-.25,5.35-1.89,6.64-5,1.53-3.66,3.44-7.16,5.52-11.43C128,67.94,130,71.37,131.54,75c1.37,3.28,3.37,5,7,5.2,3.86.27,7.69,1.14,12.44,1.89-3.81,3.73-7.08,6.57-9.87,9.83a8.36,8.36,0,0,0-1.84,5.49c.3,4.43,1.24,8.8,2,13.9Zm30-38.47V58.64h-8.39C150.09,67.29,150.69,67.88,159.33,66.83Z"/><path d="M153.38,166.06v5.61H98.73v-5.61Z"/><path d="M104.7,159.47v-5.78h42.52v5.78Z"/><path d="M142.88,178.27v5.54h-33.4v-5.54Z"/><path d="M150.79,141.28h14.63v5.89H150.79Z"/><path d="M128.76,147.09H123v-5.56h5.72Z"/><path d="M116.48,141.13v6l-5.66.27c-.11-2-.21-3.76-.33-6Z"/><path d="M104.25,147.18H98.61c-.08-1.79-.16-3.5-.26-5.75l5.9-.26Z"/><path d="M86.4,147.44v-6h5.68l.4,5.63Z"/><path d="M35.64,137.78V132.2H69c.08,1.74.17,3.46.27,5.58Z"/><path d="M37.07,101.33h5.82v5.73H37.07Z"/><path d="M49.51,107.54v-5.93h5.64c.09,1.55.19,3.26.33,5.52Z"/><path d="M24.66,107v-5.52l5.84-.37c.13,2,.24,3.73.38,5.89Z"/><path d="M12.55,106.89v-5.4h5.38C19.08,107.81,18.91,108,12.55,106.89Z"/><path class="cls-3" d="M129.35,105.3l12,6c-.79-5.1-1.73-9.47-2-13.9a8.36,8.36,0,0,1,1.84-5.49c2.79-3.26,6.06-6.1,9.87-9.83-4.75-.75-8.58-1.62-12.44-1.89-3.66-.24-5.66-1.92-7-5.2-1.52-3.63-3.52-7.06-5.65-11.23-2.08,4.27-4,7.77-5.52,11.43-1.29,3.09-3.18,4.73-6.64,5a43.15,43.15,0,0,0-12.62,2.89c3,2.71,6,5.56,9.15,8.08,2.57,2,3.13,4.26,2.38,7.39-.92,3.86-1.3,7.84-2,12.59l11.74-5.57v23H92.68V58.69H144.2c-1.37,11,3.4,16.71,15.24,14.87v54.95H129.35Z"/><path class="cls-2" d="M159.33,66.83c-8.64,1-9.24.46-8.39-8.19h8.39Z"/><path d="M104.63,39.92c20.06,0,39.19,0,58.32,0,11.2,0,15.3,4.11,15.31,15.36q0,63.18,0,126.36c0,10.4-4.43,14.75-14.95,14.75H89.39c-11.74,0-15.71-4-15.69-16,0-7.78,0-15.56,0-23.88H62.79c-16.15,0-32.3.06-48.45-.06C4.3,156.4.11,152.19.09,142.07Q0,78.14,0,14.21C0,4.46,4.71,0,14.5,0Q52.72,0,90.92,0c8.8,0,13.58,4.66,13.69,13.48C104.71,22.11,104.63,30.72,104.63,39.92ZM80.12,118.3h0q0,31.49,0,63c0,7.4,1.44,8.84,8.69,8.85q37,0,73.94,0c7.59,0,9.22-1.57,9.22-9q0-62.94,0-125.9c0-7.32-1.82-9.15-9.1-9.15q-36.72,0-73.44,0c-7.86,0-9.34,1.45-9.34,9.3Q80.08,86.83,80.12,118.3ZM92.64,12.38V39.94l5.68-.34c0-9.36.2-18.32-.09-27.28-.15-4.39-3.13-6.12-7.51-6.11-25.64.08-51.28,0-76.92.07-5.3,0-7.36,2-7.36,7.15q-.08,64.68,0,129.37c0,5.5,2,7.4,7.61,7.41q22.73.06,45.45,0h14v-24.4H24.81v-6.42H73.36V95.17H12.63V12.38ZM67.35,77v5.76l-5.8.8c.11,1.86.2,3.44.29,5H73.66V57.67c0-12.45,1-14,12.4-18.72-.07-1.48-.14-3.07-.2-4.59C72.26,32,72.26,32,70,18.77H18.79v69.8h24V83.34l-5.68-.59V76.91l5.34-.5c.29-.56.56-.85.56-1.14.05-11.64-.13-23.72-.13-34.91C42.64,30.14,47.21,28,52,23.64,59.68,28.21,61.52,34,61.64,43c-.2,3.78-.07,5.31-.07,8V76.3ZM85.64,26.82V18.68H77.5C75.84,26.92,77.52,28.54,85.64,26.82ZM55.19,83.4h-5.5v5.17h5.5Z"/><path class="cls-4" d="M55.26,37.93c0-1.84-1.54-4.61-3.15-6.29C50.49,33.32,49,36.09,49,37.93c-.17,12.62-.09,25.25-.09,38.44l3.25,0,3.24,0C55.35,63.18,55.43,50.55,55.26,37.93Z"/><path class="cls-4" d="M138.32,86.06c-7.06.27-10.85-1.9-12.42-7.57-1.57,5.67-5.36,7.84-12.42,7.57,5.66,3.78,7.9,7.47,5.83,13.24a10.09,10.09,0,0,1,13.18,0C130.41,93.53,132.65,89.84,138.32,86.06Z"/></g></g></svg>