<svg xmlns="http://www.w3.org/2000/svg" viewBox="0 0 96.12 87.59"><defs><style>.cls-1{fill:#d64a71;}.cls-2{fill:#b7365e;}.cls-3{fill:#0b0a0a;}</style></defs><g id="Ebene_2" data-name="Ebene 2"><g id="Ebene_4" data-name="Ebene 4"><path class="cls-1" d="M86.19,30.59c-2.85,1.59-1.31,4.26-1.41,6.4-.24,5-.08,5.23-5.12,5.14-3-.05-3.79,1.37-3.47,3.87.44,3.39-.46,5.23-4.33,4.6-3.26-.53-4.72,1-4.19,4.27.62,3.73-1,4.94-4.5,4.36-3.2-.53-4.32,1.05-3.89,4.05s-.3,5-4,4.34c-3.47-.66-4.68.88-4.42,4.33.1,1.35,1.32,3.73-1.71,4-2.53.23-4.21,0-4-3.4.29-4.9,0-5.06-4.74-4.89-2.66.1-3.75-.42-3.61-3.4.24-4.94,0-5.11-5.06-5-2.71.08-3.34-.89-3.29-3.42.11-5.19,0-5.32-5-5.23-2.49,0-3.54-.52-3.48-3.27.1-5-.07-5.2-5.43-5.1-2.51.05-3.16-.77-3.09-3.17.16-5.48.16-11,0-16.44-.07-2.29.58-3,2.91-3,5.38,0,5.5-.08,5.62-5.65.05-2.22.91-2.76,2.9-2.67a70.44,70.44,0,0,0,8.22,0c2.38-.17,3,.73,2.9,3-.24,5.49-.24,5.66,5.53,5.39,1.94-.08,3,.29,2.93,2.59,0,1.87-1.11,4.64,1.08,5.43a16.21,16.21,0,0,0,9.21.05c1.74-.44,1.24-2.58,1.09-4-.36-3.17.58-4.72,4-4.1,3.74.68,5-1.18,4.46-4.64-.43-2.83.52-4.09,3.59-3.75a41.41,41.41,0,0,0,7.47,0c2.41-.18,2.91.84,2.92,3,0,5.29.12,5.45,5.22,5.29,2.63-.08,3.59.67,3.31,3.31-.14,1.36-.62,3.12,1.45,3.74Z"/><path class="cls-2" d="M86.19,30.59V26.73c1.73-.84,1.52-2.44,1.43-3.9-.13-2,.14-3.19,2.72-3.18s2.76,1.18,2.72,3.18c-.08,5.6-.12,11.2,0,16.79.06,2.3-.94,2.63-2.89,2.63s-2.71-.58-2.58-2.56,0-4,0-6C87.68,32.41,87.58,31.21,86.19,30.59Z"/><path class="cls-2" d="M8.47,31.31c0,2.62-.1,5.24,0,7.85.11,2.1-.33,3.1-2.8,3.13C3,42.32,3,40.94,3.06,39c.06-5.48.08-11,0-16.44,0-1.94.3-2.9,2.6-2.93s3,.88,2.87,3.06C8.35,25.58,8.47,28.45,8.47,31.31Z"/><path class="cls-2" d="M23,1l4,.07c.65,2.59,2.79,1.65,4.31,1.61,2.29-.06,2.64,1,2.63,2.94s-.28,3-2.61,2.89c-2.84-.18-5.71,0-8.57-.07-1.1,0-2.85.62-2.85-1.35,0-1.52-1.12-3.68,1.49-4.33A2,2,0,0,0,23,1Z"/><path class="cls-2" d="M69,8.46c-1.23,0-2.48-.08-3.71,0-2,.16-3.13-.19-3.15-2.72s.94-3.19,3.25-3.06a65.31,65.31,0,0,0,7.79,0c2.46-.16,3.17.8,3.21,3.2,0,2.71-1.46,2.65-3.31,2.57C71.74,8.41,70.37,8.46,69,8.46Z"/><path class="cls-2" d="M23,53.54c2.81-.53,2.47,1.37,2.61,3.17.17,2.37-1.09,2.5-2.95,2.58-2.44.11-2.81-1-2.9-3.14C19.63,53.56,21,53.24,23,53.54Z"/><path class="cls-2" d="M73.48,53.55c2.49-.52,2.86.79,2.91,2.92,0,2.49-1.18,2.76-3.22,2.83-2.3.08-2.59-1-2.64-2.91C70.47,54.14,71.12,53.06,73.48,53.55Z"/><path class="cls-2" d="M48.41,19.78c2.79-.53,2.45,1.38,2.56,3.16.14,2.4-1.27,2.45-3,2.55-2.48.14-2.7-1.17-2.8-3.19C45,19.61,46.49,19.56,48.41,19.78Z"/><path class="cls-2" d="M48.08,79c2.89-.59,2.83,1.11,2.9,3,.09,2.28-1.07,2.59-3,2.66-2.37.09-2.87-1-2.9-3.11C45.09,79.11,46.11,78.45,48.08,79Z"/><path class="cls-2" d="M81.92,16.71c-2.35.44-2.94-.52-3-2.59C78.83,11.65,80,11.38,82,11.35s2.73.65,2.74,2.74C84.78,16.43,84,17.28,81.92,16.71Z"/><path class="cls-2" d="M14.46,45.2c2.19-.42,2.68.64,2.75,2.66.09,2.5-1.16,2.71-3.16,2.76-2.16.05-2.63-.81-2.7-2.8C11.25,45.31,12.42,44.86,14.46,45.2Z"/><path class="cls-2" d="M81.81,50.52c-2.08.34-2.84-.45-2.9-2.59-.07-2.4.93-2.85,3-2.83s2.82.45,2.82,2.65S84,50.94,81.81,50.52Z"/><path class="cls-2" d="M33.79,64.79c.49,2.43-.65,2.79-2.62,2.89-2.52.13-2.71-1.09-2.75-3.1s.76-2.71,2.79-2.74C33.64,61.8,34.32,62.82,33.79,64.79Z"/><path class="cls-2" d="M67.6,65c.43,2.21-.7,2.58-2.67,2.69-2.53.14-2.7-1.09-2.74-3.09s.69-2.71,2.75-2.76C67.41,61.78,67.94,62.91,67.6,65Z"/><path class="cls-2" d="M14.33,16.71c-2.32.44-2.92-.47-3-2.55-.07-2.42,1-2.82,3.05-2.81s2.82.56,2.82,2.7C17.2,16.36,16.41,17.29,14.33,16.71Z"/><path class="cls-2" d="M39.45,70.64c2.51-.47,2.82.8,2.88,2.73.08,2.3-1,2.55-2.93,2.63-2.29.1-2.6-1-2.61-2.88C36.77,71,37.53,70.11,39.45,70.64Z"/><path class="cls-2" d="M56.47,75.9c-2.32.43-2.61-.86-2.68-2.79-.08-2.3,1.05-2.53,2.94-2.61,2.3-.11,2.56,1,2.61,2.88C59.41,75.64,58.46,76.26,56.47,75.9Z"/><path class="cls-2" d="M39.56,16.75c-2.12.42-2.79-.48-2.78-2.6s.53-2.85,2.7-2.8c2,0,2.89.53,2.86,2.71S41.75,17.15,39.56,16.75Z"/><path class="cls-2" d="M56.74,16.75c-2,.32-3-.27-3-2.52,0-2,.46-2.93,2.68-2.88,2,0,3,.37,2.87,2.63C59.26,15.87,59.08,17.23,56.74,16.75Z"/><path class="cls-3" d="M96.05,20.2c.15-2.38-.74-3.49-3.07-3.54-1.91-.66-6,2.63-5.19-2.92-.37-5.18-.37-5.36-5.79-5.21-2.65.08-3-.94-3-3.21C79.07.08,79,.09,73.85.08c-3.73,0-7.47.1-11.19-.07-2.6-.12-3.79.83-3.36,3.43.62,3.78-.34,5.88-4.74,5-4.81-.91-3.29,3-3.8,5.28.5,2,.23,3.21-2.41,3.12-2.25-.07-3.25-.44-3.19-3,.13-5.43,1-5.51-5.36-5.35-1.8,0-2.94-.07-3.06-1.93l0,0c0-.16,0-.34-.05-.52s0-.13,0-.21a1.63,1.63,0,0,1,0-.31h-.05V5.32c.07-5.24,0-5.23-5.15-5.24C27.84.08,24.1.18,20.38,0,17.78-.11,16.59.84,17,3.44a11.92,11.92,0,0,1,.15,1.88h0a6.54,6.54,0,0,1-.22,1.58,3,3,0,0,1-.34.69l0,0c-.57.91-1.66,1.25-3.61.84-4.69-1-4.68,2.14-4.69,5.28C9.16,19.27,5,16,3.12,16.66.8,16.71-.07,17.82.07,20.19.24,23,0,25.86,0,28.69l0,15c.56,1.44,1.86,1.45,3.09,1.6a26.61,26.61,0,0,0,3-.15c2.05-.3,2.66.64,2.42,2.51-.08.61.05,1.25,0,1.86-.39,3,.78,4.21,4,4.08,4.92-.21,4.93,0,4.39,5.11.49,1.06-.06,2.51,1.25,3.25.62,0,1.24.06,1.86.06,5.38.06,5.58.06,5.52,5.37-.05,4,2.63,3.12,4.83,3.15s4.51-.4,3.45,3.1c.06,1.49.12,3,.19,4.45a4.36,4.36,0,0,0,3.86.8c3.61-.56,5.28.58,4.62,4.47-.2,1.23-.59,3.21,1,3.63a17.09,17.09,0,0,0,9.17,0c2.26-.67,1.17-3.5,1.09-5.31-.09-2.41.8-2.85,3-2.82,5.39.07,5.39,0,5.76-5.21,0-.75,0-1.49,0-2.24-.13-.55.07-.79.64-.68a10.15,10.15,0,0,1,1.09-.14c6.15-.15,6.22-.15,6.42-6.22.06-1.71.44-2.48,2.27-2.36s3.45,0,5.17,0c1.38-.75.78-2.27,1.3-3.35-.52-5.06-.52-5.2,4.44-5,2.82.09,4-.65,4-3.71C87.56,45,87.73,45,93,45.28c1.24-.15,2.56-.15,3.12-1.61q0-7.48,0-15C96.08,25.87,95.88,23,96.05,20.2ZM8.47,31.31c0,2.62-.1,5.24,0,7.85.11,2.1-.33,3.1-2.8,3.13C3,42.32,3,40.94,3.06,39c.06-5.48.08-11,0-16.44,0-1.94.3-2.9,2.6-2.93s3,.88,2.87,3.06C8.35,25.58,8.47,28.45,8.47,31.31ZM82,11.35c2.09,0,2.73.65,2.74,2.74,0,2.34-.82,3.19-2.85,2.62-2.35.44-2.94-.52-3-2.59C78.83,11.65,80,11.38,82,11.35ZM65.4,2.7a65.31,65.31,0,0,0,7.79,0c2.46-.16,3.17.8,3.21,3.2,0,2.71-1.46,2.65-3.31,2.57-1.35-.06-2.72,0-4.08,0s-2.48-.08-3.71,0c-2,.16-3.13-.19-3.15-2.72S63.09,2.57,65.4,2.7Zm-8.93,8.65c2,0,3,.37,2.87,2.63-.08,1.89-.26,3.25-2.6,2.77-2,.32-3-.27-3-2.52C53.82,12.25,54.25,11.3,56.47,11.35Zm-8.06,8.43c2.79-.53,2.45,1.38,2.56,3.16.14,2.4-1.27,2.45-3,2.55-2.48.14-2.7-1.17-2.8-3.19C45,19.61,46.49,19.56,48.41,19.78Zm-8.93-8.43c2,0,2.89.53,2.86,2.71s-.59,3.09-2.78,2.69c-2.12.42-2.79-.48-2.78-2.6S37.31,11.3,39.48,11.35ZM23.13,2.7a65.31,65.31,0,0,0,7.79,0c2.42-.15,2.94.77,3,3.11a5.28,5.28,0,0,1-.19,1.53,2.39,2.39,0,0,1-.16.32h0c-.34.61-1,.92-2.27.84-2.84-.18-5.71,0-8.57-.07a7.59,7.59,0,0,0-.92.06c-1.25-.12-1.93-.77-1.95-2.73C19.86,3.18,20.81,2.57,23.13,2.7Zm-8.74,8.65c2,0,2.82.56,2.82,2.7,0,2.31-.8,3.24-2.88,2.66-2.32.44-2.92-.47-3-2.55C11.27,11.74,12.3,11.34,14.39,11.35Zm-.34,39.27c-2.16.05-2.63-.81-2.7-2.8-.1-2.51,1.07-3,3.11-2.62,2.19-.42,2.68.64,2.75,2.66C17.3,50.36,16.05,50.57,14.05,50.62Zm8.58,8.67c-2.44.11-2.81-1-2.9-3.14-.1-2.59,1.22-2.91,3.24-2.61,2.81-.53,2.47,1.37,2.61,3.17C25.75,59.08,24.49,59.21,22.63,59.29Zm8.54,8.39c-2.52.13-2.71-1.09-2.75-3.1s.76-2.71,2.79-2.74c2.43,0,3.11,1,2.58,3C34.28,67.22,33.14,67.58,31.17,67.68ZM39.4,76c-2.29.1-2.6-1-2.61-2.88,0-2.17.74-3,2.66-2.48,2.51-.47,2.82.8,2.88,2.73C42.41,75.67,41.3,75.92,39.4,76ZM48,84.66c-2.37.09-2.87-1-2.9-3.11,0-2.44,1-3.1,3-2.57,2.89-.59,2.83,1.11,2.9,3C51.07,84.28,49.91,84.59,48,84.66Zm8.45-8.76c-2.32.43-2.61-.86-2.68-2.79-.08-2.3,1.05-2.53,2.94-2.61,2.3-.11,2.56,1,2.61,2.88C59.41,75.64,58.46,76.26,56.47,75.9Zm8.46-8.22c-2.53.14-2.7-1.09-2.74-3.09s.69-2.71,2.75-2.76c2.47,0,3,1.08,2.66,3.16C68,67.2,66.9,67.57,64.93,67.68Zm8.24-8.38c-2.3.08-2.59-1-2.64-2.91-.06-2.25.59-3.33,3-2.84,2.49-.52,2.86.79,2.91,2.92C76.44,59,75.21,59.23,73.17,59.3Zm8.64-8.78c-2.08.34-2.84-.45-2.9-2.59-.07-2.4.93-2.85,3-2.83s2.82.45,2.82,2.65S84,50.94,81.81,50.52Zm8.39-8.27c-1.93,0-2.71-.58-2.58-2.56s0-4,0-6c0-1.31-.08-2.51-1.47-3.13-2.85,1.59-1.31,4.26-1.41,6.4-.24,5-.08,5.23-5.12,5.14-3-.05-3.79,1.37-3.47,3.87.44,3.39-.46,5.23-4.33,4.6-3.26-.53-4.72,1-4.19,4.27.62,3.73-1,4.94-4.5,4.36-3.2-.53-4.32,1.05-3.89,4.05s-.3,5-4,4.34c-3.47-.66-4.68.89-4.42,4.33.1,1.35,1.32,3.73-1.71,4-2.53.23-4.21,0-4-3.4.29-4.9,0-5.06-4.74-4.89-2.66.1-3.75-.42-3.61-3.4.24-4.94,0-5.11-5.06-5-2.71.08-3.34-.89-3.29-3.42.11-5.19,0-5.32-5-5.23-2.49,0-3.54-.52-3.48-3.27.1-5-.07-5.2-5.43-5.1-2.51.05-3.16-.77-3.09-3.17.16-5.48.16-11,0-16.44-.07-2.29.58-3,2.91-3,5.38,0,5.5-.08,5.62-5.65.05-2.22.91-2.76,2.9-2.67a70.44,70.44,0,0,0,8.22,0c2.38-.17,3,.73,2.9,3-.24,5.49-.24,5.66,5.53,5.39,1.94-.08,3,.29,2.93,2.59,0,1.87-1.11,4.64,1.08,5.43a16.21,16.21,0,0,0,9.21.05c1.74-.44,1.24-2.58,1.09-4-.36-3.17.58-4.72,4-4.1,3.74.68,5-1.18,4.46-4.64-.43-2.83.52-4.09,3.59-3.75a41.41,41.41,0,0,0,7.47,0c2.41-.18,2.91.84,2.92,3,0,5.29.12,5.45,5.22,5.29,2.63-.08,3.59.67,3.31,3.31-.14,1.36-.62,3.12,1.45,3.74,1.73-.84,1.52-2.44,1.43-3.9-.13-2,.14-3.19,2.72-3.18s2.76,1.18,2.72,3.18c-.08,5.6-.12,11.2,0,16.79C93.15,41.92,92.15,42.25,90.2,42.25Z"/></g></g></svg>