<svg xmlns="http://www.w3.org/2000/svg" viewBox="0 0 409.18 380.82"><defs><style>.cls-1{fill:#49306a;}</style></defs><g id="Ebene_2" data-name="Ebene 2"><g id="Ebene_3" data-name="Ebene 3"><path class="cls-1" d="M403.32,190.45,218.73,5.86a20,20,0,0,0-28.28,0L5.86,190.45a20,20,0,1,0,28.28,28.28l17.64-17.64V352.81a28,28,0,0,0,28,28h74.75a28,28,0,0,0,28-28V297.05h45.16v55.77a28,28,0,0,0,28,28H330.5a28,28,0,0,0,28-28V202.19L375,218.73a20,20,0,0,0,28.28-28.28ZM318.5,163.28V340.82H267.72V285.05a28,28,0,0,0-28-28H170.58a28.05,28.05,0,0,0-28,28v55.75H91.78V163.28a20.55,20.55,0,0,0-.11-2.08L204.59,48.29l114,114C318.53,162.59,318.5,162.93,318.5,163.28Z"/></g></g></svg>