<svg xmlns="http://www.w3.org/2000/svg" viewBox="0 0 68.23 96.04"><defs><style>.cls-1{fill:#0b0a0a;}.cls-2{fill:#f0e376;}.cls-3{fill:#d2c35f;}.cls-4{fill:#b7c3d4;}.cls-5{fill:#243a5e;}.cls-6{fill:#f4deba;}</style></defs><g id="Ebene_2" data-name="Ebene 2"><g id="Ebene_4" data-name="Ebene 4"><path class="cls-1" d="M20.06,86.88A9.66,9.66,0,0,1,18.52,79c1-1,1.78-1.67,0-3-3.32-2.52-4.27-6.17-2.05-9.05,2.41-3.14.36-3.72-1.8-4.66A46.11,46.11,0,0,1,4.91,51.77C4.22,50.5,3.54,49.23,2.86,48A48.83,48.83,0,0,1,0,33.07a44.54,44.54,0,0,1,4.07-15L5.32,16C12.28,5.87,22,.68,34.13,0A46.85,46.85,0,0,1,48.85,3.36c2,1.29,4,2.49,5.84,3.88,1.31,1,3.3,1.63,2.54,4-2.07.69-3.18-1-4.51-1.92C47,5.1,40.62,2.78,33.4,3.26,10.63,3-4.57,28.84,6.83,48.79c4.75,8.33,10.93,15.33,22.08,14.05,2.81.74,4.08,0,3.8-3.22a75.49,75.49,0,0,1,0-10.09c.09-2-.35-3.07-2.45-3.81-3.45-1.22-5.2-4.09-5.78-7.65-.17-1-.18-2.17,1.11-2.36,1-.15,1.57.72,1.71,1.64.61,4,2.88,6.39,7,6.32,3.9-.06,6.11-2.33,6.71-6.2.15-1,.7-2.08,2-1.71s1,1.57.83,2.55c-.68,3.52-2.47,6.27-6,7.53-1.63.59-2.32,1.34-2.25,3.18.16,3.86,0,7.73.08,11.59,0,.86-.56,2.38,1,2.32,3.69-.14,7.45.87,11-.82C63.7,54.54,70,34.28,61.17,18.84c-.78-1.36-2.07-2.6-1.46-4.44,1.66-.62,2.47.47,3.26,1.61l1.27,2.08a42.58,42.58,0,0,1,4,15.05,46,46,0,0,1-2.85,14.8L64,50.77A44.43,44.43,0,0,1,52.62,62.9c-1.46.57-3.18.66-1.38,3.1,2.63,3.58,2,6.83-1.24,9.89-.55.52-2.24.7-.86,2.07a8.42,8.42,0,0,1-1,8.88c-2.66,1.78-6.72,1.86-7.41,6A11.55,11.55,0,0,1,34.11,96a11.42,11.42,0,0,1-6.6-3.16C26.79,88.69,22.77,88.61,20.06,86.88ZM34.15,66v.1c-3.86,0-7.72-.09-11.58,0a3.86,3.86,0,0,0-4.05,4c-.06,2.46,1.4,3.88,3.88,4.16a15.71,15.71,0,0,1,2.59.19c.88.26,2.2.23,2.31,1.48s-1.14,1.4-2.08,1.59c-2.7.54-4.31,2-3.86,4.92C21.78,85.24,23.9,86,26.3,86c5.36.08,10.71.14,16.07.06C45,86,47,84.75,47,81.83s-1.92-4.2-4.54-4.38-5.23,0-7.85-.09c-1.23,0-3.26.57-3.16-1.44.08-1.79,2.05-1.37,3.35-1.4,3.11,0,6.23,0,9.34,0,3.81-.08,5.87-1.66,5.62-4.42-.3-3.33-2.6-4.17-5.56-4.11C40.88,66,37.52,66,34.15,66Zm0,23c-1.55.73-4.31-1-4.54,1-.25,2.11,2.31,2.92,4.44,2.93s4.71-.76,4.5-2.86S35.63,89.83,34.18,89Z"/><path class="cls-2" d="M33.4,3.26c7.22-.48,13.55,1.84,19.32,6,1.33,1,2.44,2.61,4.51,1.92l2.48,3.19c-.61,1.84.68,3.08,1.46,4.44C70,34.28,63.7,54.54,47.68,62.11c-3.6,1.69-7.36.68-11,.82-1.56.06-1-1.46-1-2.32-.06-3.86.08-7.73-.08-11.59-.07-1.84.62-2.59,2.25-3.18,3.48-1.26,5.27-4,6-7.53.19-1,.42-2.18-.83-2.55s-1.81.71-2,1.71c-.6,3.87-2.81,6.14-6.71,6.2-4.1.07-6.37-2.29-7-6.32-.14-.92-.71-1.79-1.71-1.64-1.29.19-1.28,1.33-1.11,2.36.58,3.56,2.33,6.43,5.78,7.65,2.1.74,2.54,1.82,2.45,3.81a75.49,75.49,0,0,0,0,10.09c.28,3.22-1,4-3.8,3.22-2.85-3.36-6.6-5.73-9.32-9.34C8.92,39.36,12.26,17.71,26.79,7.67,29,6.16,31.78,5.59,33.4,3.26ZM48.78,30.08a7.88,7.88,0,0,0,7.78-7.81c0-3.69-3.93-7.68-7.7-7.81-4.24-.14-8,3.72-8,8.15S44.17,30.1,48.78,30.08Z"/><path class="cls-3" d="M33.4,3.26C31.78,5.59,29,6.16,26.79,7.67c-14.53,10-17.87,31.69-7.2,45.83,2.72,3.61,6.47,6,9.32,9.34C17.76,64.12,11.58,57.12,6.83,48.79-4.57,28.84,10.63,3,33.4,3.26Z"/><path class="cls-4" d="M34.15,66c3.37,0,6.73,0,10.09,0,3-.06,5.26.78,5.56,4.11.25,2.76-1.81,4.34-5.62,4.42-3.11.07-6.23,0-9.34,0-1.3,0-3.27-.39-3.35,1.4-.1,2,1.93,1.39,3.16,1.44,2.62.09,5.24-.09,7.85.09s4.61,1.4,4.54,4.38-2,4.2-4.67,4.24c-5.36.08-10.71,0-16.07-.06-2.4,0-4.52-.77-4.94-3.54-.45-2.92,1.16-4.38,3.86-4.92.94-.19,2.21-.2,2.08-1.59S25.87,74.74,25,74.48a15.71,15.71,0,0,0-2.59-.19c-2.48-.28-3.94-1.7-3.88-4.16a3.86,3.86,0,0,1,4.05-4c3.86-.13,7.72,0,11.58,0Z"/><path class="cls-5" d="M34.18,89c1.45.83,4.19-1.06,4.4,1s-2.36,2.87-4.5,2.86-4.69-.82-4.44-2.93C29.87,88.05,32.63,89.73,34.18,89Z"/><path class="cls-6" d="M48.78,30.08c-4.61,0-7.89-3.08-7.92-7.47s3.76-8.29,8-8.15c3.77.13,7.71,4.12,7.7,7.81A7.88,7.88,0,0,1,48.78,30.08Z"/></g></g></svg>