<svg xmlns="http://www.w3.org/2000/svg" viewBox="0 0 148.37 110.18"><defs><style>.cls-1{fill:#49306a;}</style></defs><g id="Ebene_2" data-name="Ebene 2"><g id="Ebene_2-2" data-name="Ebene 2"><path class="cls-1" d="M101,48.16H29.88c-1.56,0-3.12-.16-6.34-.33,3.5-3.2,6.08-5.28,8.32-7.66C35,36.83,35.05,32.58,32,30c-3.26-2.8-6.78-2.69-9.85.3Q12.13,40,2.35,50c-3,3.07-3.21,6.67-.18,9.81Q12.07,70.1,22.31,80c3.08,3,6.6,3,9.81,0C35,77.4,35,73.41,32,70.24c-2.26-2.41-4.91-4.46-7.39-6.66L25.39,62H84.07v-.1H101a6.88,6.88,0,0,0,0-13.76Z"/><path class="cls-1" d="M148.37,55.09A55.22,55.22,0,0,0,49.32,21.61c-4,5.24-4.1,9.38-.26,12.22s7.07,1.64,11.2-3.56C68.37,20,78.87,14.4,92,14A41.13,41.13,0,1,1,92,96.2c-13.17-.42-23.67-6.06-31.78-16.29-4.13-5.2-7.46-6.33-11.2-3.56s-3.75,7,.26,12.22A55.22,55.22,0,0,0,148.37,55.1Z"/></g></g></svg>