<svg xmlns="http://www.w3.org/2000/svg" viewBox="0 0 167.44 167.34"><defs><style>.cls-1{fill:#ffda75;}.cls-2{fill:#49306a;}.cls-3{fill:#f67f72;}.cls-4{fill:#f6f4f6;}</style></defs><g id="Ebene_2" data-name="Ebene 2"><g id="Ebene_4" data-name="Ebene 4"><path class="cls-1" d="M153.62,13.08A44.47,44.47,0,0,0,122.1,0H45.37A44.51,44.51,0,0,0,12.72,14.21,44.44,44.44,0,0,0,.06,45.3V122a44.53,44.53,0,0,0,13.23,31.71,44.59,44.59,0,0,0,32.08,13.59H122.1A45.79,45.79,0,0,0,167.41,122V45.3A44.49,44.49,0,0,0,153.62,13.08Z"/><path class="cls-2" d="M165.8,33.26c-.1-.4-.22-.48-.35-1.06-5.67-2.1-9.86-6.94-16.7-6.78-14.91.36-29.83,0-44.74.2a17.73,17.73,0,0,0-8.18,1.9,24.36,24.36,0,0,1-12.09,3.39v0a24.49,24.49,0,0,1-12.1-3.4,17.7,17.7,0,0,0-8.18-1.9c-14.91-.18-29.83.16-44.74-.2C11.88,25.28,7.66,30.2,2,32.3c-.09.21-.23.7-.29.92C-.17,39.34.13,46,0,51.92c-.07,3,3.89,5.69,4.52,8.76,1,4.95,1.41,10,2.14,15.05C7.82,83.81,14,89.51,22.24,89.63q18.8.28,37.6,0c8.45-.13,14.2-5.51,15.47-13.89.85-5.64,1.76-11.27,2.46-16.93.45-3.72,2.86-4.63,6-4.62v0c3.1,0,5.51.9,6,4.61.7,5.66,1.61,11.3,2.47,16.94,1.27,8.38,7,13.76,15.46,13.89q18.8.28,37.6,0c8.27-.13,14.42-5.82,15.58-13.9.73-5,1.12-10.1,2.14-15.06.63-3.06,4.5-5.91,4.49-9C167.41,45.3,167.41,39.2,165.8,33.26ZM66.53,43.64q-2.2,14.56-4.18,29.16c-.38,2.82-1.86,3.62-4.5,3.6-11.26-.08-22.52-.06-33.78,0-2.66,0-4-.86-4.32-3.74-1.26-9.9-2.7-19.77-4.25-29.63-.54-3.39,1-4.2,3.9-4.17,7,.06,14,0,20.94,0,7.29,0,14.59.12,21.88-.06C65.87,38.72,67.07,40.12,66.53,43.64ZM152,43c-1.56,9.86-3,19.73-4.26,29.63-.36,2.88-1.66,3.75-4.32,3.74-11.26-.05-22.52-.07-33.78,0-2.63,0-4.12-.78-4.5-3.6q-2-14.6-4.18-29.16c-.53-3.52.66-4.92,4.31-4.83,7.29.18,14.59.06,21.88.06,7,0,14,0,20.94,0C151,38.8,152.51,39.61,152,43Z"/><ellipse class="cls-3" cx="41.87" cy="69.33" rx="16.56" ry="4.68"/><ellipse class="cls-3" cx="125.57" cy="69.33" rx="16.56" ry="4.68"/><path class="cls-2" d="M83.68,100.2c8.22,0,16.45,0,24.67,0,6.3,0,9.14,3.94,7.33,9.93a33.45,33.45,0,0,1-63.9.07c-1.84-6,1-9.95,7.22-10C67.23,100.16,75.45,100.2,83.68,100.2ZM96,109.27c.57-2.1-.93-2-2.46-2-6.15,0-12.3,0-18.46,0-3.91,0-4.43.68-3.48,4.41a11.83,11.83,0,0,0,9.48,8.3c5.87.69,12.29-2.2,14.06-6.43A7.87,7.87,0,0,0,96,109.27Z"/><path class="cls-4" d="M96.06,109.27a7.7,7.7,0,0,1-.86,4.27c-1.77,4.23-8.19,7.12-14,6.43a11.85,11.85,0,0,1-9.49-8.3c-1-3.73-.43-4.4,3.49-4.41,6.15,0,12.3,0,18.45,0C95.13,107.25,96.64,107.17,96.06,109.27Z"/><path class="cls-2" d="M43.62,63.86C40.86,58,41.54,53.28,45.62,50a10.1,10.1,0,0,1,13.56.89,10,10,0,0,1,0,13.85A27.51,27.51,0,0,1,56.65,67C51.63,68.8,47.23,67.94,43.62,63.86Z"/><path class="cls-2" d="M110.72,67c-7-5.56-7.17-13.78-.31-17.78a9.87,9.87,0,0,1,11.79,1.19A10.15,10.15,0,0,1,124.6,62c-.42.93-1,1.78-1.5,2.67C119.46,68.06,115.3,68.66,110.72,67Z"/></g></g></svg>