<svg xmlns="http://www.w3.org/2000/svg" viewBox="0 0 225 225"><defs><style>.cls-1{fill:#49306a;}</style></defs><g id="Ebene_2" data-name="Ebene 2"><g id="Ebene_2-2" data-name="Ebene 2"><path class="cls-1" d="M81,0c6.11,1.45,12.43,2.34,18.31,4.46,46.59,16.81,64,72.24,35.68,112.9l-2.06,3,9.7,9.33c5.45-3.59,9.78-1.34,14.13,3,21,21.18,42.1,42.18,63.14,63.28,1.85,1.85,3.41,4,5.1,6v5l-18,18h-5c-2.23-1.94-4.58-3.75-6.67-5.84-20.87-20.8-41.62-41.72-62.58-62.43-4.41-4.36-6.62-8.68-3-14.16l-9.34-9.72a77.11,77.11,0,0,1-41.54,15.58C41.12,151.2,5.81,122.74.9,85.25A22.44,22.44,0,0,0,0,82V67a12.33,12.33,0,0,0,.79-2.28C5,34.19,26.29,10.09,55.92,2.46,59.58,1.52,63.31.81,67,0ZM74,131.09a56.82,56.82,0,0,0,.72-113.63C43.69,17.12,17.8,42.66,17.43,74,17.06,105.14,42.6,130.9,74,131.09Z"/></g></g></svg>