<svg xmlns="http://www.w3.org/2000/svg" viewBox="0 0 196.67 155.81"><defs><style>.cls-1{fill:#f0e376;}.cls-2{fill:#ed3b72;}</style></defs><g id="Ebene_2" data-name="Ebene 2"><g id="Ebene_4" data-name="Ebene 4"><path d="M73.73,40c0-8.76,0-16.88,0-25,0-10.3,4.6-14.91,15-14.93Q135.14,0,181.6,0c10.72,0,15.05,4.46,15.06,15.26q0,36.21,0,72.43c0,12.42-2.63,15.54-15.16,17.52v10.89c-5.82-3.25-10.67-6.3-15.82-8.72a25.81,25.81,0,0,0-9.84-2.59c-10.77-.32-21.55-.12-32.92-.12,0,8.62,0,16.73,0,24.84,0,10.72-4.42,15.07-15.22,15.08-21.49,0-43,.13-64.45-.09a24.7,24.7,0,0,0-14.13,3.7c-4.05,2.57-8.35,4.73-13.44,7.58V145.19C3.06,143.41,0,139.88,0,127.79Q0,91.33,0,54.86C0,44.61,4.71,40,15,40ZM175.14,98.37h6.18c7.21-.05,9.22-2,9.24-9.18q.08-37,0-73.93c0-7-2.1-9-8.93-9q-46.45,0-92.91,0C82.1,6.27,80,8.32,80,14.88q-.06,37.47,0,74.94c0,6.64,2.07,8.56,8.73,8.56,19.48,0,39,.17,58.44-.07,9.26-.12,18.32-.26,26.1,5.87.31.25.9.14,1.51.22C174.89,102.63,175,101,175.14,98.37Zm-58.43,6.31c-10.12,0-19.42,0-28.73,0S73.8,99.88,73.74,90.58c-.06-10,0-20,0-29.94V47a9.77,9.77,0,0,0-2-.6c-19.63,0-39.26-.1-58.89,0-4.2,0-6.39,2.48-6.4,6.69q0,39.18,0,78.36c0,4.54,2.52,6.64,6.86,6.79,2.62.08,5.24,0,8,0,.32,2.4.57,4.28,1,7.4,10.06-9.89,22.06-7.29,33.52-7.38,17.8-.13,35.6-.08,53.4,0,4.06,0,7.27-1.43,7.43-5.61C117,123.52,116.71,114.4,116.71,104.68Z"/><path class="cls-1" d="M175.14,98.37c-.16,2.61-.25,4.26-.36,6-.61-.08-1.2,0-1.51-.22-7.78-6.13-16.84-6-26.1-5.87-19.48.24-39,.08-58.44.07-6.66,0-8.72-1.92-8.73-8.56q-.07-37.47,0-74.94c0-6.56,2.11-8.61,8.74-8.62q46.46,0,92.91,0c6.83,0,8.92,2,8.93,9q.08,37,0,73.93c0,7.21-2,9.13-9.24,9.18ZM89.3,72h6.57c9.25,0,9.33,0,11.93,8.73.88,3,2.22,6,5.45,5.15,2.09-.55,4.41-3.32,5.1-5.57,1.65-5.37,2.37-11,3.51-16.56,2.24-10.88,4.51-21.76,6.84-33H178v-6c-17.6,0-34.86-.06-52.13.15-1.09,0-2.82,2-3.12,3.32-2.2,9.89-4.09,19.85-6.13,29.78-1.08,5.22-2.26,10.41-3.39,15.61-1.47-1.85-1.83-3.66-2.63-5.25-.51-1-1.63-2.45-2.51-2.48-6.25-.22-12.5-.11-18.83-.11Zm90,12.31c-2.14-3.89-3.93-7.61-6.15-11.06-1.75-2.73-1.88-5-.09-7.77,2.25-3.46,4.06-7.2,6.26-11.18L174,51.39l-6.55,11c-2.38-4-4.45-7.52-6.63-11.22l-5.23,3.25c2.14,3.82,3.92,7.39,6.06,10.72,1.82,2.84,2,5.27.08,8.19-2.25,3.42-4.05,7.14-6.17,11l5.4,2.94,6.53-11.09,6.44,11.07Z"/><path class="cls-2" d="M116.71,104.68c0,9.72.25,18.84-.12,27.93-.16,4.18-3.37,5.62-7.43,5.61-17.8-.07-35.6-.12-53.4,0-11.46.09-23.46-2.51-33.52,7.38-.41-3.12-.66-5-1-7.4-2.75,0-5.37.07-8,0-4.34-.15-6.86-2.25-6.86-6.79q0-39.18,0-78.36c0-4.21,2.2-6.67,6.4-6.69,19.63-.07,39.26,0,58.89,0a9.77,9.77,0,0,1,2,.6V60.64c0,10,0,20,0,29.94.06,9.3,4.85,14,14.24,14.09S106.59,104.68,116.71,104.68Zm-92-18.78c.08-1.71.06-2.88.21-4A12.4,12.4,0,0,1,35.53,70.94a12.49,12.49,0,0,1,12.92,8.13c1.92,5.15.11,10.57-4.71,14-1.21.86-2.57,1.53-3.78,2.41-5.17,3.75-7.05,9.1-5.38,15h5.49c-.6-5.83,2.1-9.07,6.73-11.9C59,91.15,58,73.3,45.38,66.6a19,19,0,0,0-20.17,2.16c-5.39,4.42-7.61,11-5.78,17.14ZM40.1,122.8l-.3-6.06-5.6.27v5.79Z"/><path d="M89.3,72V65.75c6.33,0,12.58-.11,18.83.11.88,0,2,1.45,2.51,2.48.8,1.59,1.16,3.4,2.63,5.25,1.13-5.2,2.31-10.39,3.39-15.61,2-9.93,3.93-19.89,6.13-29.78.3-1.33,2-3.31,3.12-3.32,17.27-.21,34.53-.15,52.13-.15v6H128.7c-2.33,11.2-4.6,22.08-6.84,33-1.14,5.53-1.86,11.19-3.51,16.56-.69,2.25-3,5-5.1,5.57-3.23.85-4.57-2.19-5.45-5.15C105.2,71.94,105.12,72,95.87,72Z"/><path d="M179.33,84.28l-5.41,2.88-6.44-11.07L161,87.18l-5.4-2.94c2.12-3.82,3.92-7.54,6.17-11,1.92-2.92,1.74-5.35-.08-8.19-2.14-3.33-3.92-6.9-6.06-10.72l5.23-3.25c2.18,3.7,4.25,7.19,6.63,11.22l6.55-11,5.36,2.88c-2.2,4-4,7.72-6.26,11.18-1.79,2.77-1.66,5,.09,7.77C175.4,76.67,177.19,80.39,179.33,84.28Z"/><path d="M24.71,85.9H19.43c-1.83-6.13.39-12.72,5.78-17.14A19,19,0,0,1,45.38,66.6C58,73.3,59,91.15,46.8,98.6c-4.63,2.83-7.33,6.07-6.73,11.9H34.58c-1.67-5.92.21-11.27,5.38-15,1.21-.88,2.57-1.55,3.78-2.41,4.82-3.43,6.63-8.85,4.71-14a12.49,12.49,0,0,0-12.92-8.13A12.4,12.4,0,0,0,24.92,81.88C24.77,83,24.79,84.19,24.71,85.9Z"/><path d="M40.1,122.8H34.2V117l5.6-.27Z"/></g></g></svg>