<svg xmlns="http://www.w3.org/2000/svg" viewBox="0 0 128.01 43.96"><defs><style>.cls-1{fill:#203b63;}.cls-2{fill:#90e6ff;}.cls-3{fill:#060605;}.cls-4{fill:#ed3b72;}</style></defs><g id="Ebene_2" data-name="Ebene 2"><g id="Ebene_4" data-name="Ebene 4"><polygon class="cls-1" points="66.88 14.97 73.71 38.68 80.26 41.35 117.26 41.35 125.93 37.48 124.27 2.6 6.72 2.6 2.11 8.9 2.11 35.13 5.01 39.88 47.99 41.35 55.99 36.19 61.53 13.26 66.88 14.97"/><polygon class="cls-2" points="50.4 11.08 46.76 31.41 35.04 33.79 11.84 32.99 12.86 11.08 50.4 11.08"/><path class="cls-3" d="M.77,38.77,0,32V17c0-2.29.1-4.58.13-6.87C.21,4.05,2.79,1,8.72.27,10.5,0,12.31.09,14.11,0H118.89c2.9,0,3.83-.2,5.94.59,4,4.29,2.47,11.48,3.18,16.4V31.93c-.53,8.55-1.21,9.45-9.13,12l-15,0H89c-5.32-.61-10.93.84-15.9-2.24l-.77-.86L71,38.91l-1.17-4A142.45,142.45,0,0,0,64,15.64a137.31,137.31,0,0,0-5.86,19.28l-.55,1.81c-2,7-7.86,7-13.56,7.2H14.11C9.13,43.58,3.83,44.07.77,38.77ZM64.19,5.3c-17.61,0-35.22.08-52.83,0-4.26,0-6.52,1.1-6.34,5.9.27,7.46.16,14.93,0,22.4C5,37.18,6.6,38.67,10.12,38.66c12.29,0,24.58-.06,36.87,0,3.6,0,5.3-1.63,6.14-5.06C54.56,27.7,56.57,21.93,58,16c.85-3.5,2.83-4.17,6.08-4.17s5.14.81,6,4.3c1.39,5.92,3.41,11.69,4.87,17.59.86,3.46,2.69,5,6.25,4.94q18.18-.13,36.38,0c4.12,0,5.55-1.78,5.44-5.76-.19-7.13-.28-14.28,0-21.41.21-4.92-1.87-6.31-6.49-6.27C99.07,5.4,81.63,5.3,64.19,5.3Z"/><path class="cls-3" d="M32.17,8.85c5.47,0,10.94.14,16.41,0,4-.13,5.94.66,4.56,5.32A166.83,166.83,0,0,0,49.2,31.41C48.72,34,47.69,35.13,45,35.12q-15.66-.09-31.32,0c-2.7,0-3.92-1-3.89-3.75q.11-9.43,0-18.87c0-2.79,1.29-3.73,3.95-3.69C19.91,8.92,26,8.85,32.17,8.85ZM48,14c-10.21,0-20.14.08-30.06-.05-2.5,0-2.92.89-3,3.15C14.39,30,14.14,30.71,26.78,30.71c.5,0,1,0,1.49,0,5.25-.28,11.49.59,15.54-1.68C47.62,26.89,46.69,19.34,48,14Z"/><path class="cls-4" d="M91.22,11.94l4.59.06c1.58,1.73,3.14,1.66,4.68-.05l3.4.06a4.23,4.23,0,0,0,2.82.84c7.34-1.36,6.44,4.46,6.31,8.88-.06,1.82-.11,3.65,0,5.46.14,2.12-.65,2.93-2.83,2.9-8-.09-15.91-.05-23.86,0-1.81,0-3.06-.27-3.42-2.56-.69-4.44-1.76-8.83-2.66-13.17C84,13,88.31,15.68,91.22,11.94Z"/><path class="cls-3" d="M100.49,12c-1.54,1.71-3.1,1.78-4.68.05.22-1.34,0-3,2.09-3.09S100.5,10.18,100.49,12Z"/><path class="cls-3" d="M118.17,19.14c0-8.67-.15-10.39-5.89-10.19L79,8.86H77.73c-2.77,0-3.86,1.06-3.11,4,1.58,6.21,3.07,12.47,4.23,18.77.52,2.8,1.91,3.46,4.39,3.45,10.29,0,20.58-.07,30.87,0,2.92,0,4.23-1,4.1-4.05C118.05,26.94,118.17,23.29,118.17,19.14ZM113,27.19c.14,2.12-.65,2.93-2.83,2.9-8-.09-15.91-.05-23.86,0-1.81,0-3.06-.27-3.42-2.56-.69-4.44-1.76-8.83-2.66-13.17l26.47-.68h0c7.43-.22,6.42,3.66,6.29,8.08C113,23.55,112.91,25.38,113,27.19Z"/></g></g></svg>