<svg xmlns="http://www.w3.org/2000/svg" viewBox="0 0 96.3 78.67"><defs><style>.cls-1{fill:#243a5e;}.cls-2{fill:#0b0a0a;}.cls-3{fill:#b7c3d4;}.cls-4{fill:none;}.cls-5{fill:#5abac7;}.cls-6{fill:#fff;}.cls-7{fill:#b7365e;}.cls-8{fill:#d2c35f;}.cls-9{fill:#4a9da1;}</style></defs><g id="Ebene_2" data-name="Ebene 2"><g id="Ebene_4" data-name="Ebene 4"><path class="cls-1" d="M22.74,76.36c-1.26-1.59-3-.85-4.54-.85-8.49,0-14.93-6.2-15-14.69,0-6.82-.51-13.67,2.71-20.11,5-10.07,13.43-14.9,24.24-15.29,12-.42,23.93-.22,35.9,0a25.75,25.75,0,0,1,17.16,6.26A4.14,4.14,0,0,0,87,32.81c.56.87,1.11,1.75,1.66,2.62.1.85-.07,1.88.35,2.53,4.77,7.42,4.26,15.72,4,23.92C92.6,70.73,83.36,77.62,75,75c-3.89-1.25-7.07-3-8.88-6.79-2.65-5.51-6.78-8.32-13.12-7.7-3.09.31-6.24.05-9.36.06s-6.74-.56-9.23,2A53.42,53.42,0,0,0,25.64,75.1Zm-13.67-30c0,3.44,1.38,5.74,4.16,6.51A3.52,3.52,0,0,1,16,55.75a5.91,5.91,0,0,0,5.89,4.36c2.66-.06,5.21-1.21,6.12-4.09a4.74,4.74,0,0,1,3.43-3.41,5.48,5.48,0,0,0,3.81-5.45,5.78,5.78,0,0,0-3.74-5.92,6,6,0,0,1-3.7-3.69c-1.51-3.37-6-2.14-8-3.21C16,39.79,15.09,40.91,9.46,44.45,11.17,45.77,9.11,46.11,9.07,46.37Zm39-1.62v0H44.72c-2.27,0-3.88.82-4.14,3.3a3.67,3.67,0,0,0,3.05,4.39,16.29,16.29,0,0,0,9.53-.21c1.92-.66,2.58-2.2,2.39-4.14a3.3,3.3,0,0,0-3.37-3.29C50.82,44.68,49.44,44.75,48.08,44.75Z"/><path class="cls-2" d="M66.88,74.44c-1.54-1.93-3.32-3.68-4.23-6-1.39-3.62-4.11-5.06-7.89-4.85-2.22.12-4.46.1-6.69.15-1.6,0-3.21,0-4.79-.15-5-.52-7.15,1.81-10.55,6-2.27,2.78-5.68,7.3-7.09,5.58C24.07,73.2,32,65,34.45,62.52s6-2,9.23-2,6.27.25,9.36-.06c6.34-.62,10.47,2.19,13.12,7.7C68,71.93,71.15,73.71,75,75c8.32,2.66,17.56-4.23,17.89-13.08.3-8.2.81-16.5-4-23.92-.42-.65-1.47-1.78-.35-2.53,2-1.33,2.73.57,3.54,1.89a23,23,0,0,1,3.19,8.21,54.36,54.36,0,0,1,.77,14.95C95,71.92,89.27,77.62,78,78.67,73.83,78.46,70.25,76.72,66.88,74.44Z"/><path class="cls-2" d="M48.08,44.75c1.36,0,2.74-.07,4.1,0a3.3,3.3,0,0,1,3.37,3.29c.19,1.94-.47,3.48-2.39,4.14a16.29,16.29,0,0,1-9.53.21A3.67,3.67,0,0,1,40.58,48c.26-2.48,1.87-3.32,4.14-3.3h3.36Zm0,5.31c1.35-.87,4.28.85,4.27-1.34,0-2.39-2.93-1.16-4.55-1.26-1.41-.08-4-.87-4,1C43.76,51,46.53,49.24,48.07,50.06Z"/><path class="cls-3" d="M33.33,47.06a3.83,3.83,0,0,1-4,3.82C27,51,26,51.8,26,54.28a3.53,3.53,0,0,1-3.77,3.86,3.4,3.4,0,0,1-3.6-3.58c-.08-2.39-.79-3.71-3.51-3.72A3.48,3.48,0,0,1,11.42,47a3.53,3.53,0,0,1,3.92-3.71c2.58,0,3.2-1.24,3.28-3.45.09-2.4,1.46-3.93,3.79-3.84A3.6,3.6,0,0,1,26,40c-.08,2.57,1.13,3.2,3.42,3.27A3.76,3.76,0,0,1,33.33,47.06Z"/><path class="cls-4" d="M15.41,50.41c2.53,0,3.19,1.22,3.26,3.42A3.15,3.15,0,0,0,22,57.13a3.26,3.26,0,0,0,3.5-3.55c-.05-2.28.89-3,3.09-3.13a3.55,3.55,0,0,0,3.71-3.51.6.6,0,0,1,0-.12H11.94v0A3.22,3.22,0,0,0,15.41,50.41Z"/><path class="cls-2" d="M35.29,46.47A5.49,5.49,0,0,0,31.48,41a4.71,4.71,0,0,1-3.43-3.41c-.91-2.87-3.46-4-6.12-4.08A5.9,5.9,0,0,0,16,37.89a3.52,3.52,0,0,1-2.81,2.87c-2.66.73-4,2.87-4.14,6.06.12,3.19,1.48,5.33,4.14,6.06A3.52,3.52,0,0,1,16,55.75a5.91,5.91,0,0,0,5.89,4.36c2.66-.06,5.21-1.21,6.12-4.09a4.74,4.74,0,0,1,3.43-3.41,5.48,5.48,0,0,0,3.81-5.45c0-.11,0-.22,0-.34S35.29,46.59,35.29,46.47Zm-3,.47a3.55,3.55,0,0,1-3.71,3.51c-2.2.08-3.14.85-3.09,3.13A3.26,3.26,0,0,1,22,57.13a3.15,3.15,0,0,1-3.36-3.3c-.07-2.2-.73-3.41-3.26-3.42a3.22,3.22,0,0,1-3.48-3.57v0a3.22,3.22,0,0,1,3.48-3.57c2.53,0,3.19-1.22,3.26-3.43A3.15,3.15,0,0,1,22,36.51a3.26,3.26,0,0,1,3.5,3.55c-.05,2.28.89,3,3.09,3.13a3.55,3.55,0,0,1,3.71,3.51.5.5,0,0,0,0,.12A.6.6,0,0,0,32.33,46.94Z"/><rect class="cls-5" x="43.75" y="47.23" width="8.59" height="2.83" rx="1.42"/><path class="cls-2" d="M86.92,30.57A26.69,26.69,0,0,0,78,24.65c-5.14-2.18-9.83-2.41-14.94-2.44-3.31,0-6.63-.08-9.93.17-2.14.17-3.39-.27-3.62-1.84V1.41A1.41,1.41,0,0,0,48.08,0H48a1.41,1.41,0,0,0-1.4,1.41v18h0c-.15,2.9-1.39,2.92-6.49,2.91-2.32,0-4.65-.08-7-.12a52.76,52.76,0,0,0-15,2.41c-4,1.44-6.2,3.58-8.94,6C7,32.78,5.66,35.14,4,37.32A24.9,24.9,0,0,0,.76,45.51c-.77,5-.57,10-.76,15A20.2,20.2,0,0,0,7.16,75.34c3.4,1.89,6.93,3.38,10.93,3.3,2.19-.41,4.82-.11,4.65-2.28-.67-2.11-3-.85-4.54-.85-8.49,0-14.93-6.2-15-14.69,0-6.82-.51-13.67,2.71-20.11,5-10.07,13.43-14.9,24.24-15.29,12-.42,23.93-.22,35.9,0a25.75,25.75,0,0,1,17.16,6.26c1.12,1,2.3,2.11,3.74,1.17A1.4,1.4,0,0,0,86.92,30.57Z"/><circle class="cls-6" cx="82.78" cy="48.09" r="3.41"/><path class="cls-2" d="M82.78,46.18a1.92,1.92,0,1,1-1.91,1.91,1.92,1.92,0,0,1,1.91-1.91m0-3a4.92,4.92,0,1,0,4.92,4.91,4.91,4.91,0,0,0-4.92-4.91Z"/><path class="cls-7" d="M74.93,59.35a3.42,3.42,0,1,1,3.42-3.41A3.41,3.41,0,0,1,74.93,59.35Z"/><path class="cls-2" d="M74.93,54A1.92,1.92,0,1,1,73,55.93,1.92,1.92,0,0,1,74.93,54m0-3a4.92,4.92,0,1,0,4.92,4.91A4.91,4.91,0,0,0,74.93,51Z"/><circle class="cls-8" cx="74.81" cy="40" r="3.41"/><path class="cls-2" d="M74.81,38.09A1.92,1.92,0,1,1,72.9,40a1.92,1.92,0,0,1,1.91-1.91m0-3A4.92,4.92,0,1,0,79.73,40a4.91,4.91,0,0,0-4.92-4.91Z"/><circle class="cls-9" cx="66.97" cy="48.03" r="3.41"/><path class="cls-2" d="M67,46.12A1.92,1.92,0,1,1,65.06,48,1.92,1.92,0,0,1,67,46.12m0-3A4.92,4.92,0,1,0,71.89,48,4.91,4.91,0,0,0,67,43.12Z"/></g></g></svg>