<svg xmlns="http://www.w3.org/2000/svg" viewBox="0 0 178.06 197.02"><defs><style>.cls-1{fill:#f0e376;}.cls-2{fill:#ed3b72;}.cls-3{fill:#4a9da1;}.cls-4{fill:#203b63;}.cls-5{fill:#fff;}</style></defs><g id="Ebene_2" data-name="Ebene 2"><g id="Ebene_4" data-name="Ebene 4"><path d="M86,197H24.81V173.59c4.8-1.41,7.49-9.81,3.93-13.5-8-8.33-12.14-17.75-10.45-29.58.71-5.06.12-10.29.12-15.45l1.43.49c1.08-2.12,2.79-4.14,3.13-6.37C24.6,98.49,26,87.77,27.09,77c.18-1.86-1.12-4.43-2.56-5.81-7.3-7-14.8-13.91-22.41-20.63-2.06-1.83-2.55-3.46-1.76-6,1.79-5.89,3.38-11.84,5-17.79C7,20.44,10,14.35,7.46,7.43,6.75,5.51,7.72,3,8,.3l5.65,1.06c.08,8.58,1.66,11.51,6.48,12.32,4.19.7,6.74-1.57,9.55-8.78l5.55,1.4c-.71,5.14-2.66,8.88-6.63,11.68a9.36,9.36,0,0,0-3.32,4.5,125,125,0,0,0-3.75,15,6,6,0,0,0,1.78,4.83c5.51,4.3,11.21,8.36,17.05,12.19,1.77,1.16,4.2,1.31,7.19,2.17C48.08,48.4,48.63,41,49,33.62c0-.63-1.48-1.25-1.63-2a55.79,55.79,0,0,1-.68-6.07c4-.13,2.91-3.34,3.15-5.52.46-4.1.61-8.24.92-12.85H73c.31-2.18.56-3.91.85-6h5.59c.24,1.78.48,3.52.76,5.52H97.84c.21-1.81.39-3.42.62-5.45h5.75c.18,1.73.34,3.34.55,5.5H127c.38,4.08,1.6,7.85.86,11.19-1.11,5,5.38,7.7,3.84,10.8a20.63,20.63,0,0,0-2.34,11.68c.44,4.95.66,9.92,1.06,16.25,3.24-1.07,6.15-1.46,8.41-2.89,5.47-3.47,10.6-7.48,16-11.13,2.24-1.53,3-3.09,2-5.82a62.47,62.47,0,0,1-2.09-8.21c-1.16-5-2.16-9.68-7.19-12.91-2.49-1.59-3.38-5.66-5.35-9.25l6.21-1.59c3.69,7.79,6.11,9.72,10.51,8.57s5.81-3.94,5.64-12L170.31,0c.14,3.18,1,6.15.22,8.59-1.36,4.28-.58,8.05.61,12.09,2.31,7.82,4.18,15.76,6.52,23.57.84,2.79.42,4.48-1.81,6.46-7.71,6.84-15.3,13.85-22.67,21.05a8.12,8.12,0,0,0-2.09,5.87c1.16,10.92,2.63,21.81,4.23,32.68.2,1.39,1.77,2.55,2.6,3.88.7,1.11,1.77,2.31,1.78,3.48.09,8.82.51,17.69-.36,26.43-.35,3.53-3.21,7.19-5.77,10-4.83,5.35-7.06,11-4.42,18.34l4.11.65v23.83H92.1c0-7.51-1.76-15.56.59-22.15A38.51,38.51,0,0,0,95,161H83.13c1.15,4.21-2.49,8.92,2.46,12.52.31.23.39.92.39,1.4C86,182.21,86,189.49,86,197ZM28.74,114h33a6.72,6.72,0,0,0,.63-1.06c4.26-12.29,12.73-19.2,25.84-20a27.61,27.61,0,0,1,27.18,18.84,3.76,3.76,0,0,0,2.58,2.28c10.28.16,20.57.1,31.4.1-1.28-9.61-2.94-18.61-3.53-27.67A38.71,38.71,0,0,0,138,65.34c-1.1-1.46-3.3-3-5-3-29.31-.17-58.61-.13-87.92-.06-1.37,0-3.4.32-4,1.23-2.73,4.16-6.38,8.32-7.27,13C31.5,88.68,30.4,101.13,28.74,114ZM124,55.77c-.94-14.47-1.85-28.33-2.76-42.33H56.67c-.87,14.25-1.73,28.23-2.59,42.27h7.27V44.14H117V55.77Zm-13.66,65.06A21.59,21.59,0,0,0,89,99.1a21.87,21.87,0,0,0-21.55,21.66c.08,11.21,9.74,21,21,21.2A21.5,21.5,0,0,0,110.38,120.83Zm-85.7,21.28c3.42,9.51,6.92,12.1,15.31,12.1h98.76c7.55,0,11.73-3.31,14.31-11.78-1.69-.11-3.26-.31-4.84-.31-12.14,0-24.28-.14-36.41.12a20.8,20.8,0,0,0-8.82,2.31c-8.2,4.26-16.88,5.68-24.85,1.19C72,142.28,66,142.09,59.56,142.11c-9.47,0-19,0-28.43,0Zm73.94,37.1v11.38H147V179.21Zm-19.27,0H31.14v11.49H79.35ZM60.54,121H25v14.57H64.82Zm92.67,0H117.54l-4.37,14.62h40Zm-11.93,40.2H101.72v11.35h40.63C142,168.52,141.64,164.93,141.28,161.12ZM36.56,161c-.29,4.12-.54,7.7-.81,11.58H76.3V161ZM147.29,68.29c7.71-7.08,15-13.64,22.06-20.34.93-.88,1.92-2.63,1.66-3.67-2.15-8.48-4.59-16.88-7.07-25.74l-4.83,1.86c1.69,6.78,3.09,13.09,4.88,19.29.78,2.74.07,4.22-2.18,5.75-6.56,4.48-13,9.18-19.73,14ZM14.22,18.58c-2.4,8.68-4.7,16.78-6.82,24.93-.28,1.09-.11,2.88.6,3.56,7.43,7,15,14,22.75,21.08L36,59.42c-6.67-4.8-12.87-9.5-19.33-13.81-2.7-1.8-3.21-3.54-2.31-6.56,1.69-5.72,3-11.57,4.35-17.37a5.78,5.78,0,0,0-.08-1.56ZM110.15,50l-5.7.35.29,5.75,5.41-.38Zm-11.9,5.78c-.13-2.18-.22-3.76-.32-5.34H92.19c.1,2,.18,3.59.26,5.34ZM67.43,50.25c.11,2.13.19,3.72.28,5.37h5.82c-.1-2-.19-3.57-.28-5.37ZM80.06,55.7H85.4V50.3H80.06Z"/><path class="cls-1" d="M28.74,114c1.66-12.85,2.76-25.3,5.11-37.5.89-4.63,4.54-8.79,7.27-13,.59-.91,2.62-1.22,4-1.23,29.31-.07,58.61-.11,87.92.06,1.7,0,3.9,1.52,5,3a38.71,38.71,0,0,1,7.76,21.15c.59,9.06,2.25,18.06,3.53,27.67-10.83,0-21.12.06-31.4-.1a3.76,3.76,0,0,1-2.58-2.28A27.61,27.61,0,0,0,88.16,92.94c-13.11.78-21.58,7.69-25.84,20a6.72,6.72,0,0,1-.63,1.06Z"/><path class="cls-1" d="M124,55.77H117V44.14H61.35V55.71H54.08c.86-14,1.72-28,2.59-42.27h64.61C122.19,27.44,123.1,41.3,124,55.77Zm-47.41-18A9.33,9.33,0,0,0,86,28.67a9.19,9.19,0,0,0-9.42-9.47,9.36,9.36,0,0,0-9.17,9.27A9.6,9.6,0,0,0,76.63,37.78Zm33.82-9.28a9.16,9.16,0,1,0-18.32.13,9.16,9.16,0,1,0,18.32-.13Z"/><path class="cls-2" d="M110.38,120.83A21.5,21.5,0,0,1,88.48,142c-11.25-.22-20.91-10-21-21.2A21.87,21.87,0,0,1,89,99.1,21.59,21.59,0,0,1,110.38,120.83Z"/><path class="cls-3" d="M24.68,142.11h6.45c9.48,0,19,0,28.43,0,6.43,0,12.44.17,18.58,3.62,8,4.49,16.65,3.07,24.85-1.19a20.8,20.8,0,0,1,8.82-2.31c12.13-.26,24.27-.14,36.41-.12,1.58,0,3.15.2,4.84.31-2.58,8.47-6.76,11.78-14.31,11.78H40C31.6,154.21,28.1,151.62,24.68,142.11Z"/><path class="cls-4" d="M98.62,179.21H147v11.38H98.62Z"/><path class="cls-4" d="M79.35,179.19v11.49H31.14V179.19Z"/><path class="cls-3" d="M60.54,121l4.28,14.57H25V121Z"/><path class="cls-3" d="M153.21,120.92v14.62h-40l4.37-14.62Z"/><path class="cls-4" d="M141.28,161.12c.36,3.81.7,7.4,1.07,11.35H101.72V161.12Z"/><path class="cls-4" d="M36.56,161H76.3v11.58H35.75C36,168.65,36.27,165.07,36.56,161Z"/><path class="cls-1" d="M147.29,68.29l-5.21-8.84c6.77-4.83,13.17-9.53,19.73-14,2.25-1.53,3-3,2.18-5.75-1.79-6.2-3.19-12.51-4.88-19.29l4.83-1.86c2.48,8.86,4.92,17.26,7.07,25.74.26,1-.73,2.79-1.66,3.67C162.24,54.65,155,61.21,147.29,68.29Z"/><path class="cls-1" d="M14.22,18.58l4.4,1.54a5.78,5.78,0,0,1,.08,1.56c-1.4,5.8-2.66,11.65-4.35,17.37-.9,3-.39,4.76,2.31,6.56,6.46,4.31,12.66,9,19.33,13.81l-5.24,8.73C23,61,15.43,54.12,8,47.07c-.71-.68-.88-2.47-.6-3.56C9.52,35.36,11.82,27.26,14.22,18.58Z"/><path class="cls-2" d="M110.15,50V55.7l-5.41.38-.29-5.75Z"/><path class="cls-2" d="M98.25,55.76h-5.8c-.08-1.75-.16-3.34-.26-5.34h5.74C98,52,98.12,53.58,98.25,55.76Z"/><path class="cls-2" d="M67.43,50.25h5.82c.09,1.8.18,3.4.28,5.37H67.71C67.62,54,67.54,52.38,67.43,50.25Z"/><path class="cls-2" d="M80.06,55.7V50.3H85.4v5.4Z"/><path d="M76.63,37.78a9.6,9.6,0,0,1-9.24-9.31,9.36,9.36,0,0,1,9.17-9.27A9.19,9.19,0,0,1,86,28.67,9.33,9.33,0,0,1,76.63,37.78Z"/><path d="M110.45,28.5a9.16,9.16,0,1,1-18.32.13,9.16,9.16,0,1,1,18.32-.13Z"/><rect class="cls-5" x="98.68" y="25.88" width="5.22" height="5.22" rx="2.61"/><rect class="cls-5" x="74.08" y="25.88" width="5.22" height="5.22" rx="2.61"/></g></g></svg>