<svg xmlns="http://www.w3.org/2000/svg" viewBox="0 0 196.82 196.7"><defs><style>.cls-1{fill:#f0e376;}.cls-2{fill:#ed3b72;}.cls-3{fill:#203b63;}</style></defs><g id="Ebene_2" data-name="Ebene 2"><g id="Ebene_4" data-name="Ebene 4"><path class="cls-1" d="M62.72,126.24c2.1,2.44,6.49,4.46,8.41,6.7,1.3-1.13,3.6-5.25,4.49-6.15Q130.4,72.08,185.15,17.34c.82-.82,1.62-1.68,2.45-2.5,2.19-2.17,2.9-4.68.66-7-2.52-2.64-5.06-1.58-7.35.71C169.38,20.06,153,28.17,141.45,39.7c-25.9,25.91-38.58,39.06-70.63,70.07C70.13,110.46,63.31,125.61,62.72,126.24Z"/><path d="M63.87,125.32l7,6.19,22.26-23.28c-13-12.92-26.7-26.48-40.35-40.09q-24-24-48-48C-1,14.33-1.5,7.66,3.38,3,8-1.45,14.73-.91,20.19,4.54Q61.53,45.82,102.8,87.19c2.09,2.1,3.86,4.54,6.16,7.29,9.23-9.33,17.61-17.86,26.05-26.32q25.94-26,51.92-51.91c.59-.59,1.58-1.11,1.69-1.78.35-2.21,1.31-5.08.33-6.56-1.72-2.58-4.67-2-6.9.16-7.08,7-14.12,14.13-21.19,21.19Q136.15,54,111.43,78.7c-1.17,1.16-2.41,2.24-4,3.73L103.58,78c.52-.64,1-1.43,1.69-2.09Q141.1,40,176.94,4.15C180.6.48,184.73-1,189.6.71c8,2.82,9.55,12.14,3.06,18.69C177,35.26,161.16,51,145.37,66.76q-15.51,15.49-31.12,30.95l20.94,19.92,2.95-1.92c7.19,7.31,14.38,14.67,21.64,22,10.92,11,21.9,21.9,32.83,32.87,5.62,5.65,5.6,10.17,0,15.92-1.85,1.91-3.75,3.78-5.64,5.66-6,6-10.72,6-16.65,0q-12.71-12.72-25.45-25.4c-1.38-1.36-2.43-3.87-5.27-2-.35.23-1.88-1-2.66-1.75-4-3.94-8.17-7.85-12-12-1-1.15-1-3.22-1.67-4.8a8.8,8.8,0,0,0-1.71-2.78c-1.87-1.89-3.89-3.63-5.93-5.51l3.28-4.41L98.76,114,77.94,135.11l4.12,3.2c-1,1.14-1.8,2.29-2.79,3.29-6.69,6.73-13.36,13.49-20.18,20.09-1.39,1.34-2.42,4.52-5.58,2.17-.29-.22-2,1.24-2.91,2.12Q38,178.46,25.5,191c-7.53,7.53-11.39,7.56-18.81.14-.83-.83-1.66-1.64-2.47-2.48-5.56-5.69-5.65-10.33-.13-15.92C13.46,163.29,23,154,32.26,144.41c1.17-1.2,1-3.63,2-5.07,1.16-1.59,3-3.79,4.53-3.78,3.62,0,4.39-1.24,4.68-4.55.15-1.68,3.29-4.67,3.48-4.54,3.21,2,4-1.25,5.7-2.34,2.33-1.48,3.23-5.81,7.48-3.63.39.2,1.77-1.28,2.55-2.11,4.68-4.93,8.73-9.45,14.46-14.77L81.84,108Zm65.52-2.43c-.59-.63-1.24-1.37-1.93-2.06Q88.63,82,49.77,43.11,32.48,25.8,15.15,8.52c-2.29-2.29-4.83-3.35-7.35-.71-2.24,2.35-1.53,4.86.67,7,.82.82,1.62,1.68,2.44,2.5Q65.68,72.07,120.44,126.79c.9.9,1.91,1.67,3.21,2.8C125.57,127.35,127.29,125.33,129.39,122.89Zm35.43,36.66-9.61,7.4,14.52,15.16,12.8-12.65-3.88-3.67-6.5,6.12-4.71-3.82,5.94-6.44L152,139.76l-4,4.62ZM29.57,157,14.85,171.81l9.52,9.95,15.22-14.21C36.09,163.84,32.8,160.37,29.57,157Zm12.7-5.17,20-19.27-4.21-3.86L34.85,151.44,45.18,162.3l3.41-3.67Zm105.48-16.5-10.2-10.4-12.52,13,4.34,4,7.12-9.61,7.24,6.61Zm-93.3,20.3,18.19-17.14c-2.92-.36-5.71-1.57-6.82-.68-5.24,4.22-10,9-15.09,13.7ZM187.87,175l-13.13,12.12c2.32,3.45,4.61,4,7.35.94a80.06,80.06,0,0,1,6-6C191.33,179.26,190.88,176.93,187.87,175ZM145.16,150l-8.39-8-5.48,6.11c.46.6.93,1.26,1.45,1.88,1.93,2.27,3.87,4.52,6.16,7.19ZM9.58,176.64c-5.48,4.5-2.55,5.75,3.18,11.59,2.9,3,5.09,2.24,6.79-.62Zm141-21.88-4.21,3.85c1.4,1.68,2.5,3,4,4.84,1.58-1.65,2.76-2.9,4.07-4.28Z"/><path d="M141.07,87.74l-4.84-3.94,4.81-5,3.8,5Z"/><path d="M131.89,103.45l-5-5L132.32,95l3.94,3.71Z"/><path d="M148.53,101.77l-4.6,4.24L139.61,102l4.21-4.49Z"/><path d="M92.7,61.69l-4.5-4.17,4.36-4.66L97,57.11Z"/><path d="M91,45.05l5-4,4.12,3.79-4.47,4.89Z"/><path d="M73,47.79,77.36,44l4.83,4.26L77.08,52Z"/><path class="cls-2" d="M129.39,122.89c-2.1,2.44-3.82,4.46-5.74,6.7-1.3-1.13-2.31-1.9-3.21-2.8Q65.66,72.08,10.91,17.34c-.82-.82-1.62-1.68-2.44-2.5-2.2-2.17-2.91-4.68-.67-7,2.52-2.64,5.06-1.58,7.35.71q17.3,17.31,34.62,34.59Q88.62,82,127.46,120.83C128.15,121.52,128.8,122.26,129.39,122.89Z"/><path class="cls-3" d="M164.82,159.55,148,144.38l4-4.62,21.37,21.89-5.94,6.44,4.71,3.82,6.5-6.12,3.88,3.67-12.8,12.65L155.21,167Z"/><path class="cls-3" d="M29.57,157c3.23,3.41,6.52,6.88,10,10.59L24.37,181.76l-9.52-9.95Z"/><path class="cls-3" d="M42.27,151.79l6.32,6.84-3.41,3.67L34.85,151.44l23.24-22.78,4.21,3.86Z"/><path class="cls-3" d="M147.75,135.29l-4,3.6-7.24-6.61-7.12,9.61-4.34-4,12.52-13Z"/><path class="cls-3" d="M54.45,155.59l-3.72-4.12c5.06-4.69,9.85-9.48,15.09-13.7,1.11-.89,3.9.32,6.82.68Z"/><path class="cls-3" d="M187.87,175c3,1.89,3.46,4.22.19,7.09a80.06,80.06,0,0,0-6,6c-2.74,3-5,2.51-7.35-.94Z"/><path class="cls-3" d="M145.16,150l-6.26,7.17c-2.29-2.67-4.23-4.92-6.16-7.19-.52-.62-1-1.28-1.45-1.88l5.48-6.11Z"/><path class="cls-3" d="M9.58,176.64l10,11c-1.7,2.86-3.89,3.58-6.79.62C7,182.39,4.1,181.14,9.58,176.64Z"/><path class="cls-3" d="M150.54,154.76l3.9,4.41c-1.31,1.38-2.49,2.63-4.07,4.28-1.54-1.83-2.64-3.16-4-4.84Z"/></g></g></svg>