<svg xmlns="http://www.w3.org/2000/svg" viewBox="0 0 165.85 196.76"><defs><style>.cls-1{fill:#f0e376;}.cls-2{fill:#ed3b72;}.cls-3{fill:#203b63;}</style></defs><g id="Ebene_2" data-name="Ebene 2"><g id="Ebene_4" data-name="Ebene 4"><path d="M106.22,85.45C109.7,101.89,113.1,118,116.51,134c3,14,5.89,28,8.92,42,1,4.71-.67,8.68-4.46,10.78-5.59,3.1-11.53,6.16-17.7,7.55-16.33,3.66-32.74,3.32-48.77-2.12a42.1,42.1,0,0,1-8.86-4.47c-5.06-3.21-6.5-7.74-5.36-13.77,5.36-28.28,10.42-56.61,15.56-84.93.21-1.12.21-2.27.34-3.89-4.9-.69-9.71-1-14.3-2.1-10.14-2.51-20.33-5-30.17-8.41C5.8,72.58-.08,69,0,61.32c.08-7.4,5.85-10.65,11.56-12.92,7.23-2.88,14.9-4.61,22.26-7.19a13.8,13.8,0,0,0,6-4.26c2.45-3.12,3.81-7.12,6.39-10.09,3.43-4,7-8.63,11.58-10.56A20.1,20.1,0,0,0,69.68,4C70.86.82,72.86-.18,76.16,0A114.55,114.55,0,0,0,89.65,0c3.14-.18,4.92,1,6.08,3.83,2.3,5.63,5.43,10,11.84,12.27,7.53,2.7,11.8,9.59,15.21,16.54,2.77,5.66,6.66,8.48,13,9.83a85.12,85.12,0,0,1,21.87,8c10.91,5.78,10.79,15.39.22,22-10.4,6.49-22.23,8.66-34.08,10.59C118.1,84,112.33,84.64,106.22,85.45Zm-6.43.39h-37c-4.85,26.7-9.68,53.34-14.63,80.63,12.56-5.54,24.76-7.14,37.4-6.78v4.79c-10.5,2.05-20.51,3.52-30.19,6.18-3.5,1-8.31,4.46-8.79,7.4-.79,4.91,5,6.48,8.91,7.83,17.52,6.07,35.24,6,52.93.56a37.28,37.28,0,0,0,7.18-3.38c3.09-1.75,4.05-4.21,3.23-7.95-4.58-20.78-8.88-41.62-13.3-62.44C103.67,103.78,101.73,94.88,99.79,85.84Zm54.42-31c-9.58-3-17-8.17-26.74-5.66a176.68,176.68,0,0,1-89.29.07c-9.79-2.51-17.43,2.36-26.25,5.67C36.15,71.4,125.76,71.57,154.21,54.86ZM43.73,44.19a174.06,174.06,0,0,0,77.9-.07c-2.27-11.07-11.35-5.33-17.27-7.56V31l9.06-.55C109.23,22.19,101.73,19.09,93.24,20A98.13,98.13,0,0,1,71,19.75c-7.17-.85-15.94,3.46-18.68,10.69L61,31v6.08A52.92,52.92,0,0,1,53.4,37C47.87,36.2,45.17,38.92,43.73,44.19ZM4.89,60.76c2.17,2.47,3.38,4.85,5.3,5.84C15,69.1,20,71.68,25.25,73c37,9.27,74.13,9.12,111.24,1,6.39-1.39,12.46-4.46,18.47-7.21,2.29-1,5-2.84,4.09-5.41C107.85,78.32,57.24,78.45,4.89,60.76ZM72.56,14.18H93.12c-2.62-7.73-2.71-8-6.83-7.88C80.73,6.44,73.75,3.91,72.56,14.18Z"/><path d="M116.54,104.59h5.81v5.65h-5.81Z"/><path d="M116.56,92.25h5.86c.09,1.85.18,3.56.29,5.69h-6.15Z"/><path d="M27.58,98.06V92.4h5.8v5.66Z"/><path d="M45.67,104.73v5.63H39.83c-.1-1.75-.2-3.47-.33-5.63Z"/><path d="M39.91,92.31h5.71v5.82l-5.71.27Z"/><path d="M134.55,98.13H129V92.38h5.53Z"/><path class="cls-1" d="M99.79,85.84c1.94,9,3.88,17.94,5.77,26.84,4.42,20.82,8.72,41.66,13.3,62.44.82,3.74-.14,6.2-3.23,7.95a37.28,37.28,0,0,1-7.18,3.38C90.76,191.93,73,192,55.52,185.89c-3.88-1.35-9.7-2.92-8.91-7.83.48-2.94,5.29-6.44,8.79-7.4,9.68-2.66,19.69-4.13,30.19-6.18v-4.79c-12.64-.36-24.84,1.24-37.4,6.78,5-27.29,9.78-53.93,14.63-80.63Z"/><path class="cls-2" d="M154.21,54.86C125.76,71.57,36.15,71.4,11.93,54.94c8.82-3.31,16.46-8.18,26.25-5.67a176.68,176.68,0,0,0,89.29-.07C137.19,46.69,144.63,51.89,154.21,54.86Z"/><path class="cls-2" d="M43.73,44.19c1.44-5.27,4.14-8,9.67-7.17a52.92,52.92,0,0,0,7.58.06V31l-8.62-.56C55.1,23.21,63.87,18.9,71,19.75a98.13,98.13,0,0,0,22.2.27c8.49-.93,16,2.17,20.18,10.42l-9.06.55v5.57c5.92,2.23,15-3.51,17.27,7.56A174.06,174.06,0,0,1,43.73,44.19Zm29.58-7.35V31.05H67.54v5.79Zm18.81-.1H98V31.13H92.12ZM80,31v5.74h5.72V31Z"/><path class="cls-3" d="M4.89,60.76c52.35,17.69,103,17.56,154.16.64.88,2.57-1.8,4.37-4.09,5.41-6,2.75-12.08,5.82-18.47,7.21-37.11,8.09-74.27,8.24-111.24-1C20,71.68,15,69.1,10.19,66.6,8.27,65.61,7.06,63.23,4.89,60.76Z"/><path class="cls-3" d="M72.56,14.18C73.75,3.91,80.73,6.44,86.29,6.3c4.12-.09,4.21.15,6.83,7.88Z"/><path d="M73.31,36.84H67.54V31.05h5.77Z"/><path d="M92.12,36.74V31.13H98v5.61Z"/><path d="M80,31h5.72v5.74H80Z"/></g></g></svg>