<svg xmlns="http://www.w3.org/2000/svg" viewBox="0 0 197.27 196.67"><defs><style>.cls-1{fill:#f0e376;}.cls-2{fill:#203b63;}.cls-3{fill:#ed3b72;}.cls-4{fill:#4a9da1;}</style></defs><g id="Ebene_2" data-name="Ebene 2"><g id="Ebene_4" data-name="Ebene 4"><path d="M194.16,9.29v6.33q0,59.7.05,119.39a11.94,11.94,0,0,0,2,6.89c1.88,3,.95,8.39-.06,12.41s-5,5.54-9.14,5.54q-16.23,0-32.47,0h-8.17l12.11,36.77c-8.15,0-15.71.13-23.25-.16-1,0-2.38-2-2.85-3.35-3.36-9.57-6.77-19.13-9.63-28.86-1.09-3.71-2.89-4.72-6.36-4.41-2.47.22-5,0-8,0v30.23H89.88V159.84c-2.75,0-4.91.32-6.94-.07-5.27-1-7.19,1.7-8.54,6.29-2.63,8.93-5.92,17.66-8.62,26.57-1,3.14-2.48,4.14-5.66,4-6.62-.22-13.26-.06-20.74-.06,4.09-12.41,7.95-24.16,12.1-36.76H42.31c-10.32,0-20.65,0-31,0-4.34,0-8.39-1.16-9.66-5.5s-3.5-9.26,1.07-13.56c.93-.88.8-3.1.8-4.71q.08-59.94.06-119.89V9.36H79.7C83.3.81,84.45,0,93.35,0c4,0,8,0,12,0,7.85,0,9.78,1.38,12.68,9.25ZM187.4,140.92V15.51c-22.58,0-44.71,0-66.84.05a8.4,8.4,0,0,0-3,1c-1.32.58-2.6,1.77-3.91,1.79-9.81.16-19.64.12-29.46.08-1.12,0-3.08-.07-3.24-.56-1.14-3.51-3.94-2.36-6.17-2.37-19.14-.07-38.29-.05-57.43-.05h-7V140.92Zm-180,6.78c-1.31,5.22,1.55,5.76,5.43,5.76q62.67-.08,125.35,0c15.81,0,31.63-.06,47.44,0,4,0,6.05-1.2,5-5.74Zm120.82,12.9c3,9.22,6,18.35,9.11,27.42a3.9,3.9,0,0,0,2.7,2.19c3,.29,6.07.1,9.76.1-2.64-7.88-4.92-14.77-7.25-21.65-3.21-9.49-3.23-9.49-13.38-8.68C129,160,128.9,160.15,128.23,160.6Zm-58.31-.77c-3.76,0-6.72-.13-9.66.08a3.46,3.46,0,0,0-2.57,1.66c-3.25,9.37-6.32,18.79-9.61,28.69,3.56,0,6.54.13,9.49-.07a3.46,3.46,0,0,0,2.6-1.54C63.44,179.31,66.54,169.92,69.92,159.83ZM110.76,12c.78-3.91-.42-5.76-4.27-5.69-5.16.11-10.31,0-15.46,0-3.85,0-4.89,1.95-4,5.67Zm-9.11,172V160.18h-5.2V184Z"/><path class="cls-1" d="M187.4,140.92H10.32V15.5h7c19.14,0,38.29,0,57.43.05,2.23,0,5-1.14,6.17,2.37.16.49,2.12.56,3.24.56,9.82,0,19.65.08,29.46-.08,1.31,0,2.59-1.21,3.91-1.79a8.4,8.4,0,0,1,3-1c22.13-.06,44.26-.05,66.84-.05ZM62.08,63.39V34.18H55.42v30c-12.22-7.36-13-19.31-15.48-30.64l-6.22.58c1.07,5.17,1.64,10,3.07,14.5,3,9.36,6.86,18.17,17.41,21.58.74.24,1.08,1.75,2.28,3.85C51,72.54,46,76.15,42.58,70.78c-.35-.54-3.5,0-4.79.89C35.62,73.16,27.21,75,26.12,73.11c-4-6.71-6.91-1.22-9.13,1-3.21,3.17,0,6,2.38,7.81,1.26,1,4.34,1.16,5.61.29,4.08-2.82,8.7-2.89,13.08.18,1.14.8,4.1,1.1,4.55.46,3.71-5.27,8.56-1.69,13.37-2.95-1.17,5.15,1.88,10-2.81,13.68-.59.47.68,3.14.89,4.81.48,3.87,2.63,9.34.88,11.3-3.63,4.06-2,6.22.85,8.43,1.42,1.09,4.93,1.82,5.66,1,1.89-2.07,5.72-4.11,3.36-7.92-3.65-5.89-3.67-8-.16-13.38.76-1.16.91-4.14.2-4.62-5.41-3.67-1.45-8.57-3-13.51,5.17,1.45,10.08-2,13.64,3.08.43.61,3.49,0,4.8-.79C82.34,80.63,91,78.81,92,80.52c3.36,5.56,6.11,2.21,8.37-.54,1.11-1.35,1.63-5.24,1-5.59-2.5-1.47-4.1-6.44-8.24-3.19-4.37,3.43-8.32,3.35-13.21-.09-1.13-.79-4.19-1-4.61-.33-3.58,5.58-9.43,3.73-14,4.32-3-3.53-1.21-8.09,12.2-11.69,3.38-3.69,5.48-8.74,7.19-13.52s2.3-10.19,3.49-15.81l-6.06-.46C71,59.08,70,61.05,62.08,63.39ZM178.52,85.88V24.74h-18V85.88ZM136,24.72V61.14h17.72V24.72Zm-24.7,30.42h18V24.78h-18Zm18,30.8V61.78H111.45V85.94Zm49.42,12.71H117.62v5.59h61.12Zm-61.22,30.14h45.4v-5.9h-45.4Zm18.7-61.12V85.81H153.8V67.67Zm42.49,43.07h-30.4v5.66h30.4Zm-49,5.82h11.79v-5.74H129.75ZM37.31,128.91v-6h-5.6v6Zm-18-6.1v6h5.72v-6Z"/><path class="cls-2" d="M7.41,147.7H190.65c1,4.54-1.07,5.76-5,5.74-15.81-.07-31.63,0-47.44,0q-62.67,0-125.35,0C9,153.46,6.1,152.92,7.41,147.7Z"/><path class="cls-2" d="M128.23,160.6c.67-.45.8-.61.94-.62,10.15-.81,10.17-.81,13.38,8.68,2.33,6.88,4.61,13.77,7.25,21.65-3.69,0-6.75.19-9.76-.1a3.9,3.9,0,0,1-2.7-2.19C134.2,179,131.26,169.82,128.23,160.6Z"/><path class="cls-2" d="M69.92,159.83c-3.38,10.09-6.48,19.48-9.75,28.82a3.46,3.46,0,0,1-2.6,1.54c-3,.2-5.93.07-9.49.07,3.29-9.9,6.36-19.32,9.61-28.69a3.46,3.46,0,0,1,2.57-1.66C63.2,159.7,66.16,159.83,69.92,159.83Z"/><path class="cls-2" d="M110.76,12H87c-.89-3.72.15-5.69,4-5.67,5.15,0,10.3.09,15.46,0C110.34,6.25,111.54,8.1,110.76,12Z"/><path class="cls-2" d="M101.65,184h-5.2V160.18h5.2Z"/><path d="M62.08,63.39c7.92-2.34,9-4.31,16.14-29.77l6.06.46C83.09,39.7,82.53,45,80.79,49.89s-4,9.7-7.19,13.52c-2,2.41-6.81,4.53-9.45,6.52A32.62,32.62,0,0,0,62,73.86c4.54-.59,9.78,2.5,13.36-3.08.42-.65,3.48-.46,4.61.33,4.89,3.44,8.84,3.52,13.21.09,4.14-3.25,5.74,1.72,8.24,3.19.6.35.08,4.24-1,5.59-2.26,2.75-5,6.1-8.37.54-1-1.71-9.68.11-11.76,1.45-1.31.84-4.37,1.4-4.8.79C71.9,77.7,67,81.13,61.82,79.68c1.58,4.94-2.38,9.84,3,13.51.71.48.56,3.46-.2,4.62-3.51,5.35-3.49,7.49.16,13.38,2.36,3.81-1.47,5.85-3.36,7.92-.73.8-4.24.07-5.66-1-2.88-2.21-4.48-4.37-.85-8.43,1.75-2-.4-7.43-.88-11.3-.21-1.67-1.48-4.34-.89-4.81C57.86,89.85,54.81,85,56,79.87c-4.81,1.26-9.66-2.32-13.37,2.95-.45.64-3.41.34-4.55-.46-4.38-3.07-9-3-13.08-.18-1.27.87-4.35.69-5.61-.29C17,80.07,13.78,77.25,17,74.08c2.22-2.19,5.17-7.68,9.13-1,1.09,1.84,9.5,0,11.67-1.44,1.29-.87,4.44-1.43,4.79-.89C46,76.15,51,72.54,56.48,74.07c-1.2-2.1-1.54-3.61-2.28-3.85C43.65,66.81,39.76,58,36.79,48.64c-1.43-4.53-2-9.33-3.07-14.5l6.22-.58C42.47,44.89,43.2,56.84,55.42,64.2v-30h6.66Z"/><path d="M178.52,85.88h-18V24.74h18Z"/><path d="M136,24.72h17.72V61.14H136Zm11.79,6.43h-5.45V55.34l5.45-.29Z"/><path d="M111.34,55.14V24.78h18V55.14Zm6.39-24V48.89h5.33V31.11Z"/><path d="M129.32,85.94H111.45V61.78h17.87ZM117.66,67.8V79.33h5.22V67.8Z"/><path d="M178.74,98.65v5.59H117.62V98.65Z"/><path d="M117.52,128.79v-5.9h45.4v5.9Z"/><path d="M136.22,67.67H153.8V85.81H136.22Z"/><path d="M178.71,110.74v5.66h-30.4v-5.66Z"/><path d="M129.75,116.56v-5.74h11.79v5.74Z"/><path d="M37.31,128.91h-5.6v-6h5.6Z"/><path d="M19.35,122.81h5.72v6H19.35Z"/><path class="cls-3" d="M172.06,30.74c-1.34,0-2.39-.08-3.19,0a21.42,21.42,0,0,0-2.4,0v2.9c0,.36-.06.76-.08,1.22.09,6.65.11,13.38.11,20.15s0,13.51-.11,20.15c0,.47,0,.87.08,1.23v2.9a21.42,21.42,0,0,0,2.4,0c.8.06,1.85,0,3.19,0h0V30.74h0Z"/><path class="cls-3" d="M147.83,31.15v23.9l-5.45.29V31.15Z"/><path class="cls-3" d="M117.73,31.11h5.33V48.89h-5.33Z"/><path class="cls-4" d="M117.66,67.8h5.22V79.33h-5.22Z"/><path class="cls-4" d="M142.14,79.83V74.22h5.72v5.61Z"/></g></g></svg>