<?xml version="1.0" encoding="utf-8"?>
<!-- Generator: Adobe Illustrator 25.4.1, SVG Export Plug-In . SVG Version: 6.00 Build 0)  -->
<svg version="1.1" id="Ebene_1" xmlns="http://www.w3.org/2000/svg" xmlns:xlink="http://www.w3.org/1999/xlink" x="0px" y="0px"
	 viewBox="0 0 148.4 110.2" style="enable-background:new 0 0 148.4 110.2;" xml:space="preserve">
<style type="text/css">
	.st0{fill:#FFFFFF;}
</style>
<g id="Ebene_2_00000040550176206343620990000011555687465188693646_">
	<g id="Ebene_2-2">
		<path class="st0" d="M101,48.2H29.9c-1.6,0-3.1-0.2-6.3-0.3c3.5-3.2,6.1-5.3,8.3-7.7C35,36.8,35,32.6,32,30
			c-3.3-2.8-6.8-2.7-9.9,0.3C15.5,36.8,8.9,43.3,2.3,50c-3,3.1-3.2,6.7-0.2,9.8C8.8,66.7,15.5,73.4,22.3,80c3.1,3,6.6,3,9.8,0
			c2.9-2.6,2.9-6.6-0.1-9.8c-2.3-2.4-4.9-4.5-7.4-6.7l0.8-1.6h58.7v-0.1H101c3.8,0,6.9-3.1,6.9-6.9S104.8,48.1,101,48.2L101,48.2z"
			/>
		<path class="st0" d="M148.4,55.1C148.3,24.6,123.5-0.1,93,0C75.9,0,59.7,8,49.3,21.6c-4,5.2-4.1,9.4-0.3,12.2s7.1,1.6,11.2-3.6
			C68.4,20,78.9,14.4,92,14c22.7-0.9,41.8,16.8,42.7,39.5c0.9,22.7-16.8,41.8-39.5,42.7c-1,0-2.1,0-3.1,0
			c-13.2-0.4-23.7-6.1-31.8-16.3c-4.1-5.2-7.5-6.3-11.2-3.6s-3.8,7,0.3,12.2c18.5,24.2,53.2,28.9,77.4,10.3
			C140.3,88.5,148.3,72.3,148.4,55.1L148.4,55.1z"/>
	</g>
</g>
</svg>
